<svg xmlns="http://www.w3.org/2000/svg" xmlns:xlink="http://www.w3.org/1999/xlink" width="39.995" height="40" viewBox="0 0 39.995 40">
  <defs>
    <clipPath id="clip-path">
      <rect id="Rectangle_19940" data-name="Rectangle 19940" width="39.995" height="40"/>
    </clipPath>
  </defs>
  <g id="Group_53620" data-name="Group 53620" clip-path="url(#clip-path)">
    <path id="Path_70363" data-name="Path 70363" d="M25,111.142l.7.463c.061-.308.106-.63.189-.942a2.051,2.051,0,0,1,2.878-1.39,4.065,4.065,0,0,0,3.878,0,2.046,2.046,0,0,1,2.883,1.377,6.108,6.108,0,0,1,.173,1.276.689.689,0,0,1-.683.732.717.717,0,0,1-.732-.691c-.024-.221-.03-.446-.07-.664-.144-.776-.527-.967-1.233-.624a5,5,0,0,1-3.9.269c-.28-.093-.543-.239-.817-.354-.492-.207-.97-.014-1.011.5-.084,1.064-.08,2.135-.1,3.2a.558.558,0,0,0,.105.242q1.481,2.67,2.965,5.339c.034.062.079.119.128.191a.756.756,0,0,0,.112-.092,2.091,2.091,0,0,1,2.771-.642,3.674,3.674,0,0,0,3.5.009,2.09,2.09,0,0,1,3.111,1.446,5.365,5.365,0,0,1,.139,1.191c.013,2.291.007,4.582.006,6.873,0,.7-.238.94-.934.941q-1.941,0-3.883,0c-.576,0-.88-.254-.876-.716s.308-.709.884-.711c1.112,0,2.224,0,3.38,0v-1.009c0-1.756,0-3.511,0-5.267a4.8,4.8,0,0,0-.075-.841c-.13-.716-.537-.919-1.186-.6a4.977,4.977,0,0,1-3.894.3,7.457,7.457,0,0,1-.777-.333.76.76,0,0,0-1.052.248.9.9,0,0,0-.084,1.313,6.975,6.975,0,0,1,1.366,5.232,13.079,13.079,0,0,0-.009,1.472c0,.666-.247.91-.92.91q-7.7,0-15.4,0H6.717c-.788,0-1-.215-1-1.007,0-1.235-.018-2.47.012-3.7a1.852,1.852,0,0,1,.27-.907c.733-1.153,1.5-2.281,2.271-3.431a.634.634,0,0,0-.848-.149,5.064,5.064,0,0,1-4.835,0,.682.682,0,0,0-1.053.5,3.482,3.482,0,0,0-.1.75c-.008,2.083-.005,4.166,0,6.248,0,.072.009.144.017.266.665,0,1.315,0,1.964,0,.546,0,.842.247.854.694.013.464-.295.73-.86.733q-1.249.005-2.5,0c-.648,0-.9-.247-.9-.88,0-2.351-.008-4.7.007-7.052a4.985,4.985,0,0,1,.166-1.187,2.062,2.062,0,0,1,2.943-1.393,3.837,3.837,0,0,0,3.749,0,2.182,2.182,0,0,1,2.226.194c.075-.1.157-.2.23-.313,1.114-1.669,2.231-3.336,3.333-5.013a1.172,1.172,0,0,0,.189-.613,23.189,23.189,0,0,0-.089-2.357c-.068-.629-.539-.842-1.108-.558a5.008,5.008,0,0,1-4.712.008c-.593-.3-1.013-.08-1.139.575-.048.247-.059.5-.087.751a.719.719,0,0,1-.73.693.677.677,0,0,1-.682-.729,5.937,5.937,0,0,1,.271-1.569,2.016,2.016,0,0,1,2.776-1.087,4.06,4.06,0,0,0,3.878,0,2.09,2.09,0,0,1,2.958,1.689c.037.2.059.41.092.64l.722-.453c0-2.028-.009-4.095.007-6.162a6.088,6.088,0,0,1,.15-1.368,2.075,2.075,0,0,1,3.053-1.427,3.692,3.692,0,0,0,2.889.288,5.745,5.745,0,0,0,.694-.3,2.086,2.086,0,0,1,3.037,1.406A6.277,6.277,0,0,1,24.989,105c.017,2.067.007,4.134.007,6.144m5.9,12.94c-.047-.107-.066-.161-.093-.211q-3.038-5.474-6.088-10.941a.649.649,0,0,0-.485-.254c-2.825-.015-5.65-.007-8.475-.017a.6.6,0,0,0-.575.3q-3.586,5.405-7.188,10.8c-.06.091-.1.194-.169.319ZM7.164,128.347H31.388v-2.8H7.164Zm12.1-24.268c-.63-.233-1.233-.472-1.847-.677a.658.658,0,0,0-.863.489,3.926,3.926,0,0,0-.121.924c-.01,2.007-.006,4.015,0,6.022,0,.127.016.255.025.377h7.09a1.632,1.632,0,0,0,.024-.188c0-2.126,0-4.253-.006-6.379a2.915,2.915,0,0,0-.128-.788.654.654,0,0,0-.843-.458c-.6.2-1.187.437-1.809.668.028.1.059.23.1.354.4,1.276.783,2.555,1.2,3.824a.885.885,0,0,1-.348,1.124c-.41.295-.8.622-1.2.926a.734.734,0,0,1-1.083-.022c-.372-.3-.738-.6-1.106-.9-.486-.4-.529-.544-.342-1.157.424-1.389.849-2.778,1.265-4.138m.8,2.542-.091.019c-.15.491-.271.994-.461,1.47-.147.369.1.5.318.617.115.061.325-.02.475-.079a1.423,1.423,0,0,0,.318-.25l-.559-1.777" transform="translate(0 -89.807)"/>
    <path id="Path_70364" data-name="Path 70364" d="M14.436,1.431c-.794,0-1.009.213-1.009,1q0,5.691,0,11.382v.474h1.462c.164,0,.327,0,.491,0,.567.005.893.26.9.7s-.329.722-.924.724c-.623,0-1.246,0-1.919,0a5.445,5.445,0,0,0,.007.808.69.69,0,0,0,.75.618c.431.005.863-.005,1.294,0a.717.717,0,1,1-.017,1.424c-.461.008-.923.012-1.383,0a2.115,2.115,0,0,1-2.082-2.087q-.019-7.186,0-14.373A2.11,2.11,0,0,1,14.16.006c1.9-.011,3.808,0,5.713,0H46.7a2.177,2.177,0,0,1,2.437,2.455q0,6.852,0,13.7a2.171,2.171,0,0,1-2.394,2.411c-.387,0-.774.011-1.16,0a.71.71,0,1,1,.014-1.419c.4-.014.8,0,1.2,0,.663,0,.9-.251.908-.924,0-.148,0-.295,0-.5-.706,0-1.358,0-2.01,0-.526,0-.844-.281-.842-.715s.32-.706.847-.71c.651-.005,1.3,0,1.984,0,.008-.178.021-.322.021-.466q0-5.691,0-11.382c0-.792-.214-1.008-1-1.008" transform="translate(-10.569 0)"/>
    <path id="Path_70365" data-name="Path 70365" d="M66,25.474H37.436v.486q0,3.525,0,7.05a1.855,1.855,0,0,1-.02.444.708.708,0,0,1-1.391-.015,1.81,1.81,0,0,1-.016-.4q0-4.016,0-8.032c0-.755.223-.976.987-.976H66.44c.763,0,.988.222.988.976q0,4.016,0,8.032v.045c0,.606-.251.937-.706.943S66,33.7,66,33.1q0-2.923,0-5.845V25.474" transform="translate(-31.721 -21.171)"/>
    <path id="Path_70366" data-name="Path 70366" d="M149.769,56.913a2.855,2.855,0,1,1-2.858-2.864,2.864,2.864,0,0,1,2.858,2.864M146.9,55.478a1.427,1.427,0,1,0,1.438,1.4,1.436,1.436,0,0,0-1.438-1.4" transform="translate(-126.917 -47.618)"/>
    <path id="Path_70367" data-name="Path 70367" d="M56.9,119.781a2.856,2.856,0,1,1,2.852-2.871,2.865,2.865,0,0,1-2.852,2.871m.012-4.283a1.427,1.427,0,1,0,1.412,1.431,1.438,1.438,0,0,0-1.412-1.431" transform="translate(-47.609 -100.496)"/>
    <path id="Path_70368" data-name="Path 70368" d="M239.791,116.913a2.855,2.855,0,1,1-2.878-2.843,2.863,2.863,0,0,1,2.878,2.843m-2.892,1.439a1.428,1.428,0,1,0-1.389-1.453,1.442,1.442,0,0,0,1.389,1.453" transform="translate(-206.227 -100.496)"/>
    <path id="Path_70369" data-name="Path 70369" d="M23.742,200.939a2.855,2.855,0,1,1-2.881-2.841,2.864,2.864,0,0,1,2.881,2.841m-1.428.013a1.427,1.427,0,1,0-1.415,1.429,1.439,1.439,0,0,0,1.415-1.429" transform="translate(-15.886 -174.526)"/>
    <path id="Path_70370" data-name="Path 70370" d="M272.947,203.81a2.856,2.856,0,1,1,2.851-2.871,2.865,2.865,0,0,1-2.851,2.871m.013-4.283a1.427,1.427,0,1,0,1.409,1.434,1.438,1.438,0,0,0-1.409-1.434" transform="translate(-237.949 -174.526)"/>
    <path id="Path_70371" data-name="Path 70371" d="M42.1,210.1a1.427,1.427,0,0,1,0,2.854" transform="translate(-37.092 -185.104)"/>
    <path id="Path_70372" data-name="Path 70372" d="M101.489,212.6q-3.77,0-7.54,0a.774.774,0,0,1-.708-1.315q2.244-3.353,4.472-6.718a1.1,1.1,0,0,1,1.03-.548q3.123.026,6.246,0a1.042,1.042,0,0,1,1.029.613c1.221,2.228,2.46,4.445,3.69,6.668.437.789.134,1.3-.77,1.3h-7.45m6.448-1.447a.533.533,0,0,0-.027-.145c-.985-1.78-1.966-3.562-2.97-5.331a.617.617,0,0,0-.465-.209c-1.754-.015-3.508,0-5.262-.016a.6.6,0,0,0-.574.306c-1.111,1.688-2.236,3.366-3.354,5.049-.069.1-.123.217-.2.347Z" transform="translate(-81.937 -179.748)"/>
  </g>
</svg>
