<svg xmlns="http://www.w3.org/2000/svg" xmlns:xlink="http://www.w3.org/1999/xlink" width="39.999" height="40" viewBox="0 0 39.999 40">
  <defs>
    <clipPath id="clip-path">
      <rect id="Rectangle_19937" data-name="Rectangle 19937" width="39.999" height="40"/>
    </clipPath>
  </defs>
  <g id="Group_53613" data-name="Group 53613" clip-path="url(#clip-path)">
    <path id="Path_70344" data-name="Path 70344" d="M19.282,34.067c-.654.047-1.251.126-1.849.128q-6.974.016-13.949.006A3.245,3.245,0,0,1,0,30.7Q0,17.087,0,3.478A3.241,3.241,0,0,1,3.469,0H17.821A3.241,3.241,0,0,1,21.29,3.479q0,8.629,0,17.258v.5a10.9,10.9,0,0,1,10.189-2.883,10.564,10.564,0,0,1,6.888,4.928A10.968,10.968,0,1,1,19.282,34.067M20,4.546H1.309V29.651H18.07c0-.14,0-.247,0-.354a10.981,10.981,0,0,1,1.715-6.158,1.407,1.407,0,0,0,.207-.7Q20.008,13.7,20,4.974Zm-.645,24.5a9.677,9.677,0,1,0,9.684-9.692,9.688,9.688,0,0,0-9.684,9.692M1.307,3.2H19.981A1.9,1.9,0,0,0,18,1.292q-5.278-.008-10.556,0c-1.41,0-2.82-.01-4.231,0A1.9,1.9,0,0,0,1.307,3.2m.012,27.787A1.886,1.886,0,0,0,3.28,32.908q7.358.008,14.715,0a5.754,5.754,0,0,0,.721-.092l-.495-1.822Z" transform="translate(0 0.001)"/>
    <path id="Path_70345" data-name="Path 70345" d="M33.712,94.167H27.585c-.77,0-.958-.185-.959-.943q0-4.334,0-8.668a.736.736,0,0,0-.262-.622,1.721,1.721,0,0,1-.568-1.713q.346-1.614.746-3.215a1.235,1.235,0,0,1,1.237-.966q5.946-.01,11.891,0A1.207,1.207,0,0,1,40.906,79c.274,1.079.537,2.162.761,3.253a1.7,1.7,0,0,1-.576,1.674.77.77,0,0,0-.275.659q.012,4.334,0,8.668c0,.721-.187.909-.9.909H33.712m5.8-9.646H27.941v8.326H30.5c0-1.237,0-2.445,0-3.653,0-.607.225-.834.823-.835q2.4,0,4.795,0c.626,0,.831.212.833.855q0,1.612,0,3.224v.413h2.565Zm-3.876,5.153H31.817v3.184h3.822ZM34.393,79.346v3.825h2.475l-.483-3.825Zm-1.345,3.838V79.346H31.071l-.476,3.839Zm5.122.007c.565,0,1.112.02,1.657-.007a.592.592,0,0,0,.565-.7c-.221-1.055-.478-2.1-.717-3.137H37.691l.48,3.841m-8.881.006.478-3.844H27.781c-.234,1.017-.473,2.008-.688,3a.628.628,0,0,0,.652.837c.5.013.992,0,1.544,0" transform="translate(-22.987 -69.645)"/>
    <path id="Path_70346" data-name="Path 70346" d="M204.126,217.473V216.2c.7,0,1.393-.032,2.081.023.175.014.381.281.479.478.226.454.395.937.59,1.416h3.767q3.2,0,6.409,0c.737,0,.992.358.757,1.063q-.9,2.692-1.8,5.382c-.186.554-.324.652-.906.652h-5.316c.138.508.306.643.8.644,1.558,0,3.117,0,4.708,0v1.291h-4.606a1.988,1.988,0,0,1-2.134-1.427c-1.053-2.6-2.11-5.2-3.144-7.8-.141-.355-.317-.5-.7-.457a9.4,9.4,0,0,1-.991.007m3.715,1.944a.7.7,0,0,0,.017.15c.556,1.38,1.107,2.761,1.682,4.133a.5.5,0,0,0,.389.216c1.664.015,3.328,0,4.992.015a.394.394,0,0,0,.457-.32c.419-1.3.859-2.6,1.289-3.892a2.415,2.415,0,0,0,.059-.3Z" transform="translate(-182.182 -192.951)"/>
    <path id="Path_70347" data-name="Path 70347" d="M258.737,324.171a.642.642,0,1,1-.65.633.646.646,0,0,1,.65-.633" transform="translate(-230.341 -289.321)"/>
    <path id="Path_70348" data-name="Path 70348" d="M300.734,325.456a.642.642,0,1,1,.646-.638.646.646,0,0,1-.646.638" transform="translate(-267.835 -289.322)"/>
  </g>
</svg>
