<svg id="Group_53613" data-name="Group 53613" xmlns="http://www.w3.org/2000/svg" xmlns:xlink="http://www.w3.org/1999/xlink" width="39.209" height="40" viewBox="0 0 39.209 40">
  <defs>
    <clipPath id="clip-path">
      <rect id="Rectangle_19938" data-name="Rectangle 19938" width="39.209" height="40"/>
    </clipPath>
  </defs>
  <g id="Group_53618" data-name="Group 53618" clip-path="url(#clip-path)">
    <path id="Path_70359" data-name="Path 70359" d="M31.088,10.059a.419.419,0,0,0,.008.1c.435,1.112.435,1.112,1.645,1.124a3.687,3.687,0,0,1,3.874,3.905q0,2.038,0,4.076v.474c.247,0,.459-.005.671,0a1.387,1.387,0,0,1,1.43,1.422c.016.838.012,1.677,0,2.515A1.409,1.409,0,0,1,37.2,25.189c-.173,0-.346,0-.551,0V38.78c.52,0,1.049,0,1.578,0,.187,0,.417-.049.552.04.191.125.426.354.432.544s-.216.429-.4.573c-.112.089-.333.055-.505.055q-18.685,0-37.371,0a2.9,2.9,0,0,1-.389-.016A.558.558,0,0,1,0,39.369a.541.541,0,0,1,.574-.577c.662-.016,1.325,0,2.017,0v-13.6c-.213,0-.424.006-.634,0A1.39,1.39,0,0,1,.521,23.771q-.024-1.3,0-2.6a1.379,1.379,0,0,1,1.467-1.427c1.272-.01,2.543,0,3.815,0h.516l.232-1.42H6.04c-1.272,0-2.543,0-3.815,0a1.5,1.5,0,0,1-1.708-1.7q0-3.686,0-7.372A1.473,1.473,0,0,1,2.17,7.586q6.872,0,13.743,0a1.484,1.484,0,0,1,1.669,1.649q.009,3.707,0,7.415a1.5,1.5,0,0,1-1.664,1.666c-1.286.009-2.572,0-3.858,0h-.514l.214,1.388h8.305c0-.3,0-.583,0-.869.02-1.487-.046-2.983.086-4.46a3.517,3.517,0,0,1,3.31-3.07c.432-.028.869.008,1.3-.037a.678.678,0,0,0,.445-.282,7.417,7.417,0,0,0,.42-.912A5.572,5.572,0,0,1,23.392,6.76,5.467,5.467,0,0,1,27.411.1a5.048,5.048,0,0,1,5.656,3.332,5.653,5.653,0,0,1-1.819,6.5l-.16.127M3.855,38.745H35.367V25.214H3.855ZM19.618,20.953H8.085c-1.951,0-3.9.012-5.853-.009-.415,0-.526.135-.51.523.025.606.007,1.214.007,1.821,0,.691,0,.691.676.691H36.831a2.413,2.413,0,0,1,.26,0c.329.036.428-.121.421-.433-.015-.665,0-1.33,0-1.995,0-.6,0-.6-.59-.6h-17.3M16.343,11.46H1.766a1.335,1.335,0,0,0-.033.2c0,1.677,0,3.354-.007,5.03,0,.372.2.422.5.42,1.055-.005,2.11,0,3.165,0H6.685c.048-.062.062-.072.064-.084.133-.8.264-1.594.4-2.391.09-.536.274-.7.8-.7q1.106-.007,2.211,0c.5,0,.695.178.777.682.114.7.255,1.393.33,2.1.038.36.2.409.5.406,1.344-.012,2.688,0,4.032-.006.525,0,.568-.044.568-.569q0-2.342,0-4.683c0-.126-.018-.252-.028-.391M32.3,5.448a12.624,12.624,0,0,0-.381-1.631,3.736,3.736,0,0,0-6.338-1.341,4.526,4.526,0,0,0-.234,5.675,3.678,3.678,0,0,0,5.816.216A4.841,4.841,0,0,0,32.3,5.448M24.815,16.172c-.319-.336-.6-.65-.9-.939a.766.766,0,0,1-.167-1.01c.269-.537.495-1.1.742-1.653A2.525,2.525,0,0,0,21.278,15c-.017,1.488,0,2.976,0,4.464a2.374,2.374,0,0,0,.035.275h4.576c-.582-.674-1.087-1.265-1.6-1.85a.651.651,0,0,1-.046-.9c.185-.256.364-.517.574-.815M35.4,19.718c0-1.52,0-3.006,0-4.491a2.558,2.558,0,0,0-3.222-2.677c.178.4.354.792.526,1.184.478,1.09.58.958-.32,1.892-.521.541-.517.544-.076,1.172.419.6.412.715-.073,1.276-.458.53-.914,1.061-1.415,1.644Zm-19.03-9.527c0-.268,0-.51,0-.753,0-.632-.007-.637-.619-.637H2.321c-.087,0-.194-.032-.256.008-.124.081-.3.19-.317.3a9.306,9.306,0,0,0-.015,1.077Zm9.394,2.537c-.17.374-.343.753-.514,1.132-.31.687-.311.689.206,1.234.912.962,1.013.9.166,2.028a.317.317,0,0,0,.006.48c.577.645,1.131,1.311,1.711,1.954a1.5,1.5,0,0,0,.457.225V13.19l-2.031-.462m3.3,6.967.106.068,2.062-2.382c-.214-.306-.393-.568-.58-.825a.648.648,0,0,1,.066-.932c.283-.289.562-.582.831-.885.069-.077.154-.22.125-.289-.245-.594-.513-1.178-.765-1.742l-1.848.452Zm-18.527.024L9.8,15.165h-1.5l-.741,4.553Zm16.174-9.1-.423.946a5.731,5.731,0,0,0,4.1-.009l-.42-.927a5,5,0,0,1-3.258-.011" transform="translate(0 0)"/>
    <path id="Path_70362" data-name="Path 70362" d="M78.606,243.07q5.006,0,10.011,0a1.506,1.506,0,0,1,1.7,1.708q0,1.56,0,3.121a1.505,1.505,0,0,1-1.626,1.661q-10.076.006-20.152,0a1.5,1.5,0,0,1-1.633-1.654q0-1.6,0-3.208a1.488,1.488,0,0,1,1.647-1.628q5.027,0,10.054,0m0,1.208H68.686c-.54,0-.57.031-.571.559q0,1.43,0,2.861c0,.632.024.656.659.656h10.1q4.832,0,9.663,0c.518,0,.57-.055.571-.57q0-1.452,0-2.9c0-.584-.017-.6-.615-.6H78.61" transform="translate(-58.992 -214.328)"/>
  </g>
</svg>
