<svg id="Group_53617" data-name="Group 53617" xmlns="http://www.w3.org/2000/svg" width="40" height="40" viewBox="0 0 40 40">
  <path id="Path_70349" data-name="Path 70349" d="M11.562,0a1.034,1.034,0,0,1,.647,1.062c-.019,3.02-.007,6.04-.011,9.061a4.7,4.7,0,0,1-3.11,4.468c-.3.135-.257.313-.257.512q0,11.209,0,22.417a2.415,2.415,0,0,1-2.113,2.414A1.156,1.156,0,0,0,6.555,40h-.91c-1.807-.587-2.276-1.178-2.276-2.868q0-11.028.006-22.056A.508.508,0,0,0,3,14.543,4.908,4.908,0,0,1,.12,11.3c-.034-.123-.08-.244-.12-.366V0H1.184a1.033,1.033,0,0,1,.647,1.062c-.021,2.577-.01,5.155-.01,7.732v.4H3.46V8.755c0-2.564.011-5.129-.01-7.693A1.03,1.03,0,0,1,4.1,0h.546A1.033,1.033,0,0,1,5.29,1.062c-.021,2.577-.01,5.155-.01,7.732v.4H6.919V8.755c0-2.564.011-5.129-.01-7.693A1.03,1.03,0,0,1,7.556,0H8.1A1.033,1.033,0,0,1,8.75,1.062c-.021,2.577-.01,5.155-.01,7.732v.4h1.639V8.755c0-2.564.011-5.129-.01-7.693A1.03,1.03,0,0,1,11.016,0Zm-9.7,10.795a3.405,3.405,0,0,0,2.384,2.526c.854.3.946.395.946,1.172q0,11.424,0,22.847c0,.717.3,1.085.894,1.094.608.009.927-.37.927-1.106q0-11.424,0-22.848c0-.757.1-.875.918-1.148A3.5,3.5,0,0,0,10.1,11.5a5.854,5.854,0,0,0,.232-.706Z"/>
  <path id="Path_70350" data-name="Path 70350" d="M318.578,40a1.162,1.162,0,0,0-.162-.066,2.416,2.416,0,0,1-2.113-2.411q0-5.5.006-11.006a.748.748,0,0,0-.31-.646c-.518-.419-1.02-.854-1.51-1.3a3.6,3.6,0,0,1-1.277-2.718c-.011-3.539-.113-7.08.025-10.615.187-4.793,2.72-8.54,7.343-11.24h1.184V38.047A2.816,2.816,0,0,1,319.488,40Zm1.366-37.623c-.271.212-.466.353-.645.508a11.379,11.379,0,0,0-4.264,8.727c-.034,3.371-.006,6.743-.009,10.114a2.4,2.4,0,0,0,.908,1.894c.568.488,1.125.986,1.71,1.46a1.187,1.187,0,0,1,.486,1c-.013,3.749-.008,7.5-.007,11.247a2.745,2.745,0,0,0,.012.429.934.934,0,0,0,1.792.017,2.719,2.719,0,0,0,.016-.468q0-17.2,0-34.4Z" transform="translate(-281.764)"/>
  <path id="Path_70353" data-name="Path 70353" d="M85.5,95.1a9.621,9.621,0,1,1,9.583,9.643A9.636,9.636,0,0,1,85.5,95.1m17.887.013a8.266,8.266,0,1,0-8.267,8.274,8.278,8.278,0,0,0,8.267-8.274" transform="translate(-75.124 -75.124)"/>
  <path id="Path_70354" data-name="Path 70354" d="M120.112,276.747a16.445,16.445,0,0,1-8.152-2.644,1.315,1.315,0,0,1-.583-.788,1.174,1.174,0,0,1,.4-.834c.289-.274.665-.169,1.018.007a30.474,30.474,0,0,0,3.226,1.552,15.491,15.491,0,0,0,17.059-4.66,4.766,4.766,0,0,1,.423-.475.873.873,0,0,1,1.164-.038.9.9,0,0,1,.224,1.147,2.391,2.391,0,0,1-.243.328c-3.288,4.067-8.24,6.415-14.532,6.405" transform="translate(-101.743 -242.663)"/>
  <path id="Path_70355" data-name="Path 70355" d="M132.045,48.668a17.018,17.018,0,0,1,11.911,5.222,1.708,1.708,0,0,1,.405.588.845.845,0,0,1-.4,1.016.882.882,0,0,1-1.092-.128c-.517-.467-1-.974-1.544-1.409a15.609,15.609,0,0,0-16.711-1.84.876.876,0,0,1-1.062-.034,1.371,1.371,0,0,1-.361-.822c-.025-.4.3-.623.646-.795a17.925,17.925,0,0,1,8.209-1.8" transform="translate(-112.13 -42.76)"/>
  <path id="Path_70356" data-name="Path 70356" d="M90.361,281.5a.877.877,0,0,1-.895.882.955.955,0,0,1-.941-.956.915.915,0,0,1,.9-.887.948.948,0,0,1,.932.962" transform="translate(-79.366 -251.511)"/>
  <path id="Path_70357" data-name="Path 70357" d="M128.429,128.063a.914.914,0,0,1,.965.679.85.85,0,0,1-.4.979c-.2.132-.434.214-.644.333a6.484,6.484,0,0,0-3.456,5.6c-.031.577-.218.891-.647,1.03a.915.915,0,0,1-1.173-.988,8.034,8.034,0,0,1,2.656-5.964,16.962,16.962,0,0,1,2.282-1.54,1.373,1.373,0,0,1,.413-.135" transform="translate(-110.592 -115.227)"/>
  <path id="Path_70358" data-name="Path 70358" d="M185.181,124.866a.893.893,0,0,1-.9-.935.9.9,0,0,1,.913-.881.922.922,0,0,1,.931.917.911.911,0,0,1-.944.9" transform="translate(-165.216 -110.318)"/>
</svg>
