<svg version="1.2" xmlns="http://www.w3.org/2000/svg" viewBox="0 0 44 32" width="44" height="32">
	<title>Subtraction_13</title>
	<style>
		.s0 { fill: #000000 } 
	</style>
	<path id="Subtraction_13" fill-rule="evenodd" class="s0" d="m21.8 31.5q-0.3 0-0.5-0.1-0.3 0-0.5-0.1-0.3-0.1-0.5-0.2-0.2-0.2-0.4-0.3-0.1-0.1-0.1-0.2-0.1-0.1-0.1-0.2-0.1-0.1-0.1-0.2 0-0.1 0-0.2 0.1-1.8 0.3-3.5 0.1-0.7 0.2-1.4c0.1-1.9 0.4-4.2 0.6-7.2q0 0 0 0 0 0 0 0 0 0 0-0.1 0 0 0 0 0 0 0-0.1v-0.1l-0.1 0.1-0.2 0.1q-0.2 0-0.3 0.1l-6.5 3-5.7 2.7q-0.1 0.1-0.2 0.1-0.1 0-0.2 0.1 0 0-0.1 0-0.1 0-0.2 0c-0.3 0-0.5-0.2-0.7-0.7l-0.1-0.2-0.3-0.6-0.1-0.2q-0.5-1.1-1-2.2c-0.3-0.6-0.2-0.9 0.4-1.2q0.2-0.1 0.5-0.2h0.1l0.1-0.1 0.2-0.1q0 0 0.1 0 0 0 0 0 0 0 0-0.1 0 0 0 0h0.1l0.1-0.1-0.1-0.1h-0.2q-0.1-0.1-0.2-0.1l-0.8-0.4h-0.1l-0.5-0.2c-1.3-0.5-2.6-1.1-4-1.6q0-0.1-0.1-0.1-0.1-0.1-0.1-0.1-0.1-0.1-0.2-0.1 0-0.1-0.1-0.1-0.1-0.1-0.2-0.2v-0.4l0.5-1q0.8-1.3 1.5-2.6c0.2-0.4 0.4-0.6 0.7-0.6q0.1 0.1 0.1 0.1 0.1 0 0.2 0 0 0 0.1 0 0 0 0.1 0l1.2 0.3 0.7 0.2c1.8 0.5 3.8 1 5.6 1.4q0.1 0 0.1 0.1 0 0 0.1 0 0 0 0.1 0 0 0 0 0 0.1 0 0.1 0 0.1 0 0.1 0 0.1-0.1 0.1-0.1 0.1 0 0.1 0c1.2-0.6 2.5-1.2 3.6-1.7l0.8-0.4q0 0 0 0 0 0 0.1 0 0 0 0 0 0 0 0 0 0.1-0.1 0.1-0.1l0.1-0.1-1.1-0.7-0.6-0.5-1.6-1-3.2-2.2-1.7-1.3q-0.2 0-0.4-0.2-0.2-0.2-0.2-0.4-0.1-0.2-0.1-0.5 0-0.2 0.1-0.4 0.1-0.5 0.3-0.9 0.3-0.4 0.6-0.7 0.4-0.3 0.8-0.4 0.4-0.2 0.9-0.2 0.1 0 0.3 0.1 0.1 0 0.2 0 0.2 0 0.3 0 0.2 0.1 0.3 0.1c1.2 0.4 2.3 0.8 3.5 1.3q0.4 0.1 0.8 0.3c3.2 1.2 6.3 2.4 9 3.5q0 0 0.1 0 0 0.1 0.1 0.1 0 0 0.1 0 0.1 0 0.1 0 0.1 0 0.1 0 0.1 0 0.1 0 0.1-0.1 0.2-0.1 0 0 0.1 0c1.5-0.7 3-1.5 4.5-2.1l0.6-0.3c1.7-0.9 3.9-1.9 6-2.8q0.4-0.2 0.8-0.4 0.4-0.2 0.8-0.3 0.5-0.1 0.9-0.1 0.5-0.1 0.9-0.1 0.2 0 0.3 0 0.2 0 0.4 0 0.1 0 0.3 0.1 0.1 0 0.3 0 0.4 0.1 0.8 0.3 0.4 0.1 0.8 0.4 0.3 0.3 0.6 0.6 0.3 0.3 0.5 0.7 0.2 0.5 0.2 0.9 0.1 0.5 0.1 1-0.1 0.4-0.2 0.9-0.1 0.4-0.4 0.8-0.2 0.4-0.6 0.8-0.3 0.4-0.6 0.7-0.4 0.4-0.8 0.7-0.5 0.2-0.9 0.4c-3.4 1.7-6.8 3.2-10 4.7q-0.2 0.1-0.3 0.2-0.1 0.1-0.2 0.2-0.1 0.1-0.1 0.2-0.1 0.1-0.1 0.2c-1.6 4.7-3.3 9.7-5 14.6q0 0.2-0.2 0.5-0.1 0.3-0.2 0.5-0.1 0.3-0.3 0.5-0.1 0.3-0.3 0.5-0.2 0.3-0.4 0.5-0.2 0.2-0.5 0.3-0.2 0.1-0.5 0.2-0.3 0.1-0.6 0.1zm0-18.6h0.1q0.1 0 0.2 0 0.2 0.1 0.3 0.2 0.1 0.1 0.1 0.3 0 0.1 0 0.2 0 0.1 0 0.1 0 0 0 0.1 0 0 0 0.1 0 0 0 0-0.1 1.6-0.3 3.2v0.1l-0.3 3.4-0.2 2.2c-0.2 2.2-0.4 4.4-0.6 6.5q-0.1 0.1-0.1 0.2 0 0.1 0 0.2 0.1 0 0.1 0.1 0 0.1 0.1 0.2 0 0 0.1 0 0 0.1 0.1 0.1 0 0 0.1 0 0 0 0.1 0 0.1 0 0.2 0 0.1 0 0.2 0 0.1-0.1 0.2-0.1 0.1 0 0.2-0.1 0.1-0.1 0.2-0.2 0.1-0.2 0.3-0.4 0.1-0.2 0.2-0.4 0.1-0.3 0.2-0.5 0.2-0.2 0.2-0.5c1.6-4.5 3.1-9 4.6-13.5l0.1-0.2q0.8-2.4 1.6-4.7c0.1-0.4 0.4-0.7 0.7-0.7q0 0 0 0 0.1 0 0.1 0 0 0 0 0 0.1 0 0.1 0.1c0.6 0.1 0.5 0.6 0.4 1q-0.1 0.4-0.3 0.8v0.1l-0.1 0.2-0.1 0.3v0.1h0.1 0.1q0.1 0 0.1 0 0 0 0-0.1 0 0 0 0 0 0 0 0l1.8-0.8 0.5-0.3h0.1c2.1-0.9 4.2-1.9 6.3-2.9q0.4-0.2 0.8-0.5 0.5-0.3 0.8-0.6 0.4-0.3 0.6-0.7 0.3-0.4 0.5-0.8 0.2-0.2 0.2-0.5 0.1-0.2 0.1-0.5 0-0.3 0-0.5-0.1-0.3-0.2-0.5-0.1-0.2-0.3-0.4-0.1-0.2-0.3-0.4-0.2-0.1-0.5-0.2-0.2-0.1-0.5-0.2-0.1 0-0.2 0-0.2 0-0.3-0.1-0.2 0-0.3 0-0.2 0-0.3 0-0.4 0-0.7 0.1-0.4 0-0.8 0.1-0.3 0.1-0.7 0.2-0.3 0.1-0.6 0.3c-3.9 1.8-7.8 3.7-11.6 5.4l-0.1 0.1-0.7 0.3-1.1 0.5c-3.8 1.8-7.7 3.6-11.6 5.4q-0.1 0.1-0.2 0.1-0.1 0-0.1 0.1-0.1 0-0.2 0-0.1 0-0.2 0 0 0-0.1 0 0 0-0.1 0 0 0-0.1 0 0 0 0 0-1.2-0.3-2.3-0.6l-0.3-0.1c-1.4-0.3-3-0.7-4.5-1.1q0 0 0 0-0.1 0-0.1 0-0.1-0.1-0.1-0.1-0.1 0-0.1 0c-0.3 0-0.5 0.2-0.7 0.5q-0.1 0.2-0.1 0.4-0.1 0.1-0.2 0.3-0.1 0.1-0.2 0.3-0.1 0.2-0.2 0.3-0.1 0.3-0.3 0.6v0.1l0.2 0.1h0.1q0.1 0.1 0.2 0.1l0.7 0.3 0.6 0.2q2.5 1 4.8 2c0.4 0.2 0.7 0.3 0.8 0.8 0 0.4-0.3 0.6-0.8 0.8q-0.6 0.3-1.2 0.6l-0.2 0.1-0.4 0.1-0.1 0.1 1.1 2.4h0.1 0.1q0 0 0 0 0-0.1 0.1-0.1 0 0 0 0 0 0 0 0l2.8-1.3q5.1-2.4 10-4.6 0.1-0.1 0.1-0.1 0.1-0.1 0.2-0.1 0-0.1 0-0.2 0.1-0.1 0.1-0.2 0-1.1 0.2-2.1 0-0.1 0-0.2 0.1-0.1 0.2-0.2 0.1-0.1 0.2-0.2 0.1 0 0.2 0zm-11.9-10.6q-0.2-0.1-0.4 0-0.2 0-0.3 0.2-0.2 0.1-0.3 0.2-0.1 0.2-0.2 0.3 0 0.1 0 0.2 0 0.1 0 0.2 0 0 0.1 0.1 0 0.1 0.1 0.1c1.3 0.9 2.7 1.9 4 2.8h0.1c1.3 0.9 2.9 2 4.4 3q0 0 0.1 0 0 0.1 0 0.1 0.1 0 0.1 0 0.1 0 0.1 0 0 0 0 0 0.1 0 0.1 0 0 0 0 0 0 0 0 0c1.4-0.6 2.6-1.2 4.1-1.9l0.4-0.2 0.5-0.2 0.2-0.1-0.2-0.1-0.2-0.1q-0.1 0-0.2-0.1l-1-0.4h-0.1l-1-0.4-0.3-0.1h-0.1c-2.7-1.1-5.5-2.2-8.3-3.2q-0.1-0.1-0.3-0.2-0.2 0-0.4-0.1-0.1 0-0.3 0-0.2-0.1-0.4-0.1 0 0-0.1 0 0 0 0 0-0.1 0-0.1 0-0.1 0-0.1 0z"/>
</svg>