<svg id="Group_53615" data-name="Group 53615" xmlns="http://www.w3.org/2000/svg" width="40" height="40" viewBox="0 0 40 40">
  <g id="Group_53624" data-name="Group 53624">
    <path id="Path_70374" data-name="Path 70374" d="M0,204.225c.077-.73.1-1.472.245-2.188a14.615,14.615,0,0,1,.7-2.527c.339-.847.737-.952,1.645-.842,2.608.316,5.215.65,7.831.888a116.278,116.278,0,0,0,13.89.306,103.11,103.11,0,0,0,10.348-.816c.98-.127,1.958-.271,2.937-.405a1.168,1.168,0,0,1,1.4.725,7.152,7.152,0,0,1,.771,2.667c.1.728.158,1.461.235,2.192v3.341c-.021.126-.049.251-.063.378-.087.784-.142,1.573-.262,2.351a5.579,5.579,0,0,1-.772,2.261,1.129,1.129,0,0,1-1.206.6c-3.186-.521-6.4-.847-9.617-1.05-.836-.053-1.674-.082-2.562-.124.067.175.1.282.148.387.349.836.693,1.673,1.052,2.5a1.342,1.342,0,0,1-1.818,1.815c-.117-.051-.238-.09-.411-.155a1.746,1.746,0,0,1-1.13,1.293h-.625a1.913,1.913,0,0,1-1.074-1.2c-.3-.784-.642-1.549-.994-2.385-.352.839-.7,1.6-.995,2.389a1.884,1.884,0,0,1-1.078,1.191h-.625a1.823,1.823,0,0,1-1.132-1.3c-.164.061-.285.1-.4.151a1.34,1.34,0,0,1-1.818-1.812c.365-.842.716-1.691,1.07-2.538.051-.121.087-.249.141-.4-.112,0-.164,0-.215,0a107.038,107.038,0,0,0-13.123,1.186c-.78.12-1.21-.027-1.518-.8a15.216,15.216,0,0,1-.723-2.56C.1,209.038.077,208.3,0,207.566v-3.341M24.876,210.6c.2.02.326.039.453.046,1.144.06,2.292.074,3.431.185,2.8.27,5.59.574,8.382.887.793.089.845.134.983-.668a35.428,35.428,0,0,0,.492-3.764,21.727,21.727,0,0,0-.487-6.6c-.188-.765-.2-.758-.976-.642a110.677,110.677,0,0,1-13.177,1.141c-.148,0-.3.014-.356.017.123,1.327.238,2.613.369,3.9a.81.81,0,0,0,.2.394,4.592,4.592,0,0,1,.955,4.328c-.065.246-.167.483-.27.778M3.42,211.63a118.088,118.088,0,0,1,12.964-1.048c.014-.058.029-.085.024-.107a1.442,1.442,0,0,0-.059-.183,4.577,4.577,0,0,1,.206-3.939.881.881,0,0,0,.1-.366,16.832,16.832,0,0,0-.458-4.506c-.052-.215-.127-.3-.355-.3-.546-.005-1.094-.022-1.639-.064q-4.2-.329-8.4-.678c-.8-.068-1.6-.185-2.377-.278a28,28,0,0,1,0,11.472m20.572-3.072a3.326,3.326,0,1,0-3.336,3.29,3.3,3.3,0,0,0,3.336-3.29m-5.964-3.849a4.8,4.8,0,0,1,4.658-.372c-.171-.995-.333-1.892-.474-2.793-.041-.264-.16-.324-.414-.322-1.338.01-2.677,0-4.015,0a1.584,1.584,0,0,0-.207.025l.453,3.462M2,211.374A22.314,22.314,0,0,0,2,200.4a22.251,22.251,0,0,0,0,10.979m19.675,1.83,1.379,3.271c.176-.387.307-.682.444-.974a.692.692,0,0,1,1.037-.411c.305.123.609.25,1,.411l-1.5-3.574m-8.241,3.6c.419-.182.726-.322,1.038-.449a.675.675,0,0,1,.986.386c.145.31.279.625.457,1.025l1.411-3.355a13.542,13.542,0,0,1-1.255-.532,12.767,12.767,0,0,1-1.1-.746l-1.538,3.672" transform="translate(0 -177.823)"/>
    <path id="Path_70375" data-name="Path 70375" d="M40,8.237a1.763,1.763,0,0,1-1.251,1.105c-.985.317-1.952.689-2.93,1.039a8.975,8.975,0,0,1,.165,2.993,1.248,1.248,0,0,1-1.213,1.2,10.694,10.694,0,0,1-1.521,0,1.288,1.288,0,0,1-1.239-1.3c-.016-.489,0-.979,0-1.539-.672.238-1.293.449-1.9.688-.068.027-.1.215-.1.329-.007,1.2-.02,2.408,0,3.611a1.451,1.451,0,0,1-.693,1.306,6.814,6.814,0,0,1-2.614.962,37.1,37.1,0,0,1-9.133.514,23.715,23.715,0,0,1-4.861-.662,10.087,10.087,0,0,1-1.845-.71,1.5,1.5,0,0,1-.872-1.516C10.029,15,10,13.727,10,12.444L5.878,10.975C4.337,10.427,2.8,9.863,1.251,9.342A1.8,1.8,0,0,1,0,8.237V7.693A1.693,1.693,0,0,1,1.128,6.614Q8.293,4.089,15.447,1.537c1.416-.5,2.827-1.024,4.24-1.537h.625a.392.392,0,0,0,.09.066q9.158,3.254,18.32,6.5A1.786,1.786,0,0,1,40,7.693ZM30,11.028c.35-.121.657-.22.959-.332a3.5,3.5,0,0,0,1.842-1,.621.621,0,0,1,.293-.186c.213-.072.252-.212.25-.417-.01-.906-.015-1.813,0-2.719,0-.258-.1-.352-.326-.433q-6.371-2.256-12.739-4.52a.836.836,0,0,0-.516,0Q11.645,4.288,3.533,7.174c-.7.25-1.405.5-2.19.786L10,11.032a8.5,8.5,0,0,0-.008-1.148,1.813,1.813,0,0,1,1.336-2.058c.191-.081.383-.161.58-.227a18.52,18.52,0,0,1,4.248-.781,38.655,38.655,0,0,1,10.231.342,7.871,7.871,0,0,1,2.794.934,1.5,1.5,0,0,1,.826,1.469c-.033.463-.006.931-.006,1.465M11.331,14.993a35.147,35.147,0,0,1,17.327-.006.387.387,0,0,0,.009-.089c0-1.773.009-3.547-.013-5.32a.608.608,0,0,0-.317-.45,10.584,10.584,0,0,0-1.775-.568,35.3,35.3,0,0,0-12.5-.122,16.447,16.447,0,0,0-2.355.663.608.608,0,0,0-.366.418c-.025,1.837-.016,3.675-.016,5.473M11.4,16.5l.016.128a5.518,5.518,0,0,0,.7.31c.6.172,1.2.349,1.809.464a35.469,35.469,0,0,0,8.437.431,21.311,21.311,0,0,0,5.266-.813c.324-.1.632-.253.947-.382v-.146c-.446-.16-.883-.354-1.34-.474a27.889,27.889,0,0,0-7-.764,28.814,28.814,0,0,0-7.469.762c-.468.122-.915.321-1.372.484M34.7,6.547V9.366l3.969-1.408L34.7,6.547m-1.341,6.69h1.318c0-.211,0-.39,0-.569,0-.465.013-.931-.008-1.395a.643.643,0,0,0-.638-.653.6.6,0,0,0-.663.525c-.028.692-.008,1.386-.008,2.091"/>
  </g>
</svg>
