<svg version="1.2" xmlns="http://www.w3.org/2000/svg" viewBox="0 0 49 49" width="49" height="49">
	<title>Fysa7N 1 </title>
	<style>
		.s0 { fill: #ffffff } 
	</style>
	<g id="Fysa7N 1 ">
		<g id="&lt;Group&gt;">
			<path id="&lt;Compound Path&gt;" fill-rule="evenodd" class="s0" d="m23.6 0q1.3 0 2.5 0 1 0.1 1.9 0.2c5.2 0.8 9.7 2.9 13.5 6.5q6 5.8 7.2 14 0.2 1.1 0.3 2.2 0 1.3 0 2.5-0.1 0.3-0.1 0.5-0.2 3.1-1.2 5.9c-3.6 11-14.6 17.8-26.1 16.3-4.1-0.6-7.9-2-11.1-4.6-7.4-5.7-10.6-13.3-9.6-22.5 0.5-4.2 2.1-7.9 4.6-11.2q6-7.9 15.8-9.5c0.8-0.1 1.5-0.2 2.3-0.3zm-10.7 9.5c-5.4 4.8-7.9 10.7-6.7 17.8 1.3 7.4 5.7 12.4 12.8 14.8 5.4 1.9 10.6 1.1 15.6-1.7-2.3-3.2-4.4-6.3-6.6-9.4-0.4 0.6-0.8 1.2-1.1 1.7q-1.9 3.3-3.8 6.5c-0.3 0.6-0.9 0.8-1.4 0.6-0.5-0.2-0.8-0.7-0.7-1.2q0.5-3.8 1.1-7.6 0.2-1.5 0.4-3.1-0.3 0-0.6 0c-1.4 0-2.9 0-4.3 0.1-0.9 0-1.6-0.8-1-1.8 1.1-2 2.2-3.9 3.4-5.9 0.1-0.3 0.1-0.5-0.1-0.8q-1.8-2.5-3.5-5.1c-1.2-1.6-2.3-3.2-3.5-4.9zm25.7 27.6c6.1-6.3 7.3-17.2 0.8-25-6.6-7.9-16.6-7.9-22-5.2q2.8 4 5.7 8c0.1-0.2 0.2-0.3 0.2-0.4q1.6-2.7 3.1-5.4c0.3-0.5 0.8-0.7 1.3-0.6 0.5 0.2 0.8 0.6 0.8 1.2q0 0.4 0 0.8-0.2 4.1-0.4 8.1c-0.1 0.5 0 1.1 0 1.7q2 0 4 0c0.5 0 0.9 0.1 1.1 0.6 0.3 0.4 0.2 0.8-0.1 1.2-0.6 1.1-1.3 2.3-2 3.4-0.2 0.4-0.2 0.6 0.1 1q3 4.2 5.9 8.5 0.8 1 1.5 2.1z"/>
		</g>
	</g>
</svg>