<svg version="1.2" xmlns="http://www.w3.org/2000/svg" viewBox="0 0 58 57" width="58" height="57">
	<title>CHUJod 1 </title>
	<style>
		.s0 { fill: #ffffff } 
	</style>
	<g id="CHUJod 1 ">
		<g id="&lt;Group&gt;">
			<path id="&lt;Path&gt;" class="s0" d="m57.8 36.4c-0.2 0.2-0.3 0.4-0.4 0.5-0.5 0.5-1.2 0.4-1.6 0-0.4-0.5-0.3-1.1 0.1-1.5 0.5-0.5 1.2-0.4 1.6 0.1 0.1 0.1 0.2 0.3 0.3 0.5q0 0.2 0 0.4z"/>
			<path id="&lt;Compound Path&gt;" fill-rule="evenodd" class="s0" d="m50.3 19.9c0 3.3 0.1 6.5 0 9.7-0.2 6.5-2.7 12-7.3 16.5-2.8 2.8-6 5.1-9.4 7.2-1.4 0.9-2.8 1.8-4.3 2.7-0.6 0.4-1.2 0.4-1.8 0-3.9-2.4-7.8-4.8-11.4-7.7-3.2-2.8-6-5.9-7.7-9.9-1.3-3-1.9-6.2-2-9.5 0-6.5 0-12.9 0-19.4 0-1.1 0.5-1.4 1.5-1.4 1.7 0 3.3 0.2 5 0.1 5.2-0.3 10-2 14.1-5.4q0.2-0.2 0.5-0.4c0.7-0.6 1.1-0.6 1.8 0q2.3 2 5 3.4c3.1 1.4 6.3 2.3 9.7 2.4 1.6 0.1 3.2-0.1 4.8-0.1 1.1-0.1 1.6 0.3 1.6 1.5q0 5.2 0 10.3-0.1 0-0.1 0zm-21.9-15.1c-0.2 0.1-0.3 0.2-0.4 0.3-5.5 4.2-11.7 5.8-18.5 5.5-0.7-0.1-0.7-0.1-0.7 0.6q0 8.4 0 16.8c0 2.6 0.3 5.1 1.1 7.6 1.2 4.1 3.7 7.3 6.9 10.1 3.5 3.1 7.4 5.5 11.3 7.9 0.1 0.1 0.2 0.1 0.3 0.1 0-3.5 0-6.9 0-10.4q0.4 0 0.7 0c0.7-0.1 1.4 0 2.1-0.1 1.6 0 2.6-1.1 2.7-2.7q0-2.6 0-5.2c0-0.2 0-0.4 0-0.6 0.2 0 0.5 0 0.7 0q2.6 0 5.1-0.1c1.7 0 2.7-1 2.7-2.7q0-2.7 0-5.4c0-1.7-1-2.8-2.7-2.8q-2.6 0-5.2 0-0.3 0-0.6 0c0-0.2 0-0.4 0-0.6q0-2.6 0-5.1c-0.1-1.8-1.1-2.8-3-2.9q-1.2 0-2.5 0c0-3.4 0-6.8 0-10.3z"/>
			<path id="&lt;Path&gt;" class="s0" d="m6 53.9c-0.6 0-1-0.4-1.1-1q0-0.3 0-0.6c0-0.8-0.4-1.1-1.1-1.1-0.3 0-0.5 0-0.7-0.1-0.6-0.1-1-0.5-1-1.1 0-0.5 0.5-1 1.1-1 1.6-0.2 1.6-0.2 1.7-1.9 0.1-0.5 0.5-0.9 1.1-0.9 0.5 0 1 0.3 1.1 0.9 0 0.3 0 0.5 0 0.8q0.1 1 1.1 1.1c0.2 0 0.4-0.1 0.7 0 0.5 0 1 0.5 1 1 0 0.6-0.4 1-1 1.1q-0.3 0.1-0.6 0.1c-0.8 0-1.2 0.3-1.2 1.2q0 0.2 0 0.5c-0.1 0.6-0.5 1-1.1 1z"/>
			<path id="&lt;Path&gt;" class="s0" d="m55.7 43.7c0 0.5-0.3 0.9-0.8 0.9-0.2 0-0.5 0-0.7 0q-0.8 0.1-0.9 0.9c0 0.2 0 0.4 0 0.6 0 0.5-0.4 0.9-0.8 0.9-0.5 0-0.9-0.3-1-0.7q0-0.1 0-0.3c-0.1-1.3-0.1-1.3-1.5-1.4-0.6 0-0.9-0.4-0.9-0.9 0-0.6 0.3-0.9 0.9-1q0.3 0 0.5 0c0.6 0 0.9-0.3 0.9-0.9 0.1-0.2 0-0.4 0.1-0.7 0-0.4 0.4-0.8 0.9-0.8 0.5 0 0.8 0.4 0.9 0.8 0.1 0.5 0.1 1.1 0.3 1.3 0.3 0.3 0.9 0.3 1.3 0.3 0.5 0.1 0.8 0.5 0.8 1z"/>
			<path id="&lt;Path&gt;" class="s0" d="m10.7 0c0.4 0.1 0.6 0.3 0.7 0.7 0.1 1.1 0.1 1.1 1.1 1.2 0.5 0 0.8 0.3 0.7 0.7 0 0.5-0.3 0.7-0.7 0.7-1 0.1-1.1 0.2-1.1 1.1-0.1 0.5-0.3 0.8-0.7 0.8-0.5 0-0.7-0.3-0.8-0.8-0.1-1-0.1-1-1.1-1.1-0.4 0-0.7-0.2-0.7-0.7 0-0.4 0.2-0.7 0.7-0.7 1-0.1 1-0.1 1.1-1.2 0.1-0.4 0.4-0.7 0.8-0.7z"/>
			<path id="&lt;Path&gt;" class="s0" d="m51.2 5.7c0-0.6 0.2-0.8 0.7-0.9 0.9-0.1 0.9-0.1 1-0.9 0-0.5 0.2-0.8 0.6-0.8 0.5 0 0.6 0.3 0.7 0.7 0 0.9 0.1 1 1 1 0.4 0.1 0.6 0.3 0.7 0.7 0 0.4-0.3 0.6-0.7 0.6-0.9 0.2-0.9 0.2-1 1.1-0.1 0.4-0.3 0.6-0.7 0.6-0.4 0-0.6-0.2-0.6-0.6-0.1-0.9-0.2-0.9-1.1-1.1-0.2 0-0.5-0.3-0.6-0.4z"/>
			<path id="&lt;Path&gt;" class="s0" d="m3.1 20.8c0 0.9-0.7 1.5-1.6 1.5-0.8 0-1.5-0.7-1.5-1.5 0-0.9 0.7-1.6 1.6-1.6 0.8 0 1.5 0.7 1.5 1.6z"/>
			<path id="&lt;Path&gt;" class="s0" d="m48 3c-0.5 0-1-0.5-1-1.1 0-0.6 0.5-1.1 1.1-1.1 0.6 0 1.1 0.5 1 1.1 0 0.6-0.5 1.1-1.1 1.1z"/>
			<path id="&lt;Path&gt;" class="s0" d="m32.2 33q0 0.4 0 0.8 0 3.2 0 6.5c0 1-0.3 1.3-1.4 1.3q-2.5 0-5 0c-0.9 0-1.2-0.4-1.2-1.2q0-3.4 0-6.7c0-0.2 0-0.4 0-0.7-0.3 0-0.5 0-0.7 0q-3.3 0-6.6 0c-1 0-1.3-0.3-1.3-1.3q0-2.5 0-5.1c0-0.9 0.3-1.2 1.2-1.2q3.3 0 6.7 0c0.2 0 0.4 0 0.7 0q0-0.4 0-0.7 0-3.3 0-6.6c0-1 0.3-1.3 1.2-1.3q2.6 0 5.2 0c0.8 0 1.2 0.3 1.2 1.2q0 3.3 0 6.6c0 0.2 0 0.5 0 0.8 0.3 0 0.5 0 0.7 0q3.3 0 6.5 0c1.1 0 1.4 0.3 1.4 1.3q0 2.5 0 5c0 1-0.3 1.3-1.3 1.3q-3.3 0-6.6 0c-0.2 0-0.4 0-0.7 0z"/>
		</g>
	</g>
</svg>