<svg version="1.2" xmlns="http://www.w3.org/2000/svg" viewBox="0 0 60 68" width="60" height="68">
	<title>r1x1ks 1 </title>
	<style>
		.s0 { fill: #ffffff } 
	</style>
	<g id="r1x1ks 1 ">
		<g id="&lt;Group&gt;">
			<path id="&lt;Path&gt;" class="s0" d="m49.8 47.1c-0.7 2.4 0 4.6 1.6 6.6-4 4.3-8.8 7.1-14.6 8.5-0.8-2.2-2.2-3.9-4.5-4.6-0.3-0.1-0.5-0.7-0.6-1 0-3 0-6 0-9.1 2 1.4 5 1.2 6.4-0.6 0.5-0.5 0.5-1.5 0.4-2.3-0.1-2.1 0.3-2.5 2.3-2.2 0.7 0.1 1.5 0.2 2.2 0.6 2.1 1.2 4.2 2.4 6.3 3.7 0.2 0 0.3 0.2 0.5 0.4z"/>
			<path id="&lt;Path&gt;" class="s0" d="m10.9 47c2.5-1.5 4.8-2.9 7.3-4.2 0.8-0.4 1.9-0.5 2.9-0.5 1 0.1 1.2 0.9 1.2 1.8 0 1-0.2 2.3 0.3 2.7 1.1 0.9 2.6 1.5 4 1.8 0.7 0.1 1.5-0.8 2.4-1.4 0 3.2 0 6.4 0 9.5 0 0.3-0.3 0.8-0.6 0.9-2.2 0.7-3.6 2.3-4.4 4.6-5.8-1.3-10.6-4.1-14.6-8.4 1.5-2 2.3-4.2 1.5-6.8z"/>
			<path id="&lt;Path&gt;" class="s0" d="m57.8 42.6c-2.7-0.4-4.8 0.2-6.6 2-2.4-1.3-4.7-2.7-7.1-4.1 0.1-0.3 0.1-0.6 0.3-0.9 0.8-1.7 0.6-3-1-4-1.1-0.7-1.6-1.7-0.3-2.6 2-1.3 2.2-3 0.8-5.1 2.5-1.4 4.8-2.8 7.2-4.2 1.8 1.7 4 2.5 6.5 2 1.8 5.7 1.8 11.2 0.2 16.9z"/>
			<path id="&lt;Path&gt;" class="s0" d="m3.1 25.7c2.5 0.4 4.7-0.1 6.5-2 2.3 1.4 4.7 2.7 7.1 4.1-0.2 0.5-0.3 1-0.5 1.4-0.6 1.3-0.3 2.3 0.9 3.3 1.8 1.5 1.7 1.8 0 3.4-1.4 1.2-1.4 1.2-0.5 4.6-0.1 0.1-0.2 0.2-0.3 0.3-2.2 1.2-4.4 2.5-6.7 3.8q-2.7-2.7-6.6-2c-1.7-5.6-1.6-11.1 0.1-16.9z"/>
			<path id="&lt;Path&gt;" class="s0" d="m24.1 6.5c0.8 2.1 2.2 3.5 4.2 4.2 0.3 0.2 0.7 0.7 0.7 1.1 0.1 3 0 6 0 9-2-1.3-4.6-1.1-6.3 0.6-0.4 0.3-0.5 1.1-0.5 1.8 0.1 2.8-0.8 3.7-3.4 2.6-2.6-1.1-4.9-2.7-7.4-4.2-0.2-0.1-0.4-0.5-0.3-0.8 0.5-2.2-0.2-4.1-1.6-6 4-4.2 8.8-7 14.6-8.3z"/>
			<path id="&lt;Path&gt;" class="s0" d="m36.7 6.5c5.7 1.3 10.4 4 14.5 8.3-1.4 1.9-2.1 4-1.3 6.6-3.3 1.4-5.8 4.1-9.5 4.6-1.4 0.2-2.1-0.5-1.9-1.9 0.3-1.5 0.2-2.7-1.5-3.4-2.8-1.3-3.3-1.4-5.3 0.3 0-3.3 0-6.3 0.1-9.4 0-0.3 0.3-0.7 0.6-0.8 2.1-0.7 3.4-2.2 4.3-4.3z"/>
			<path id="&lt;Compound Path&gt;" fill-rule="evenodd" class="s0" d="m42 38.1c-0.1 1.2-0.7 1.6-2 1.5-2.5-0.2-4.3 1.6-4.2 4.1 0 0.6-0.5 1.3-0.7 1.9-0.7-0.3-1.4-0.5-1.8-1-1.6-1.6-4.6-1.6-6.1 0.1-0.4 0.4-1.1 0.6-1.6 0.8-0.2-0.5-0.6-1.1-0.6-1.6 0-2.7-1.7-4.5-4.2-4.3-1.3 0.1-1.9-0.3-2-1.5 0.7-1.2 2.4-1.6 2.3-3.5-0.1-1.5-0.3-2.8-1.7-3.7-0.3-0.2-0.5-1-0.4-1.3 0.2-0.4 0.9-0.8 1.4-0.8 3.2-0.1 4.5-1.5 4.6-4.6 0-0.5 0.3-1.2 0.7-1.4 0.4-0.1 1.2 0.2 1.5 0.5 2.1 2.2 4.2 2.2 6.3 0 0.4-0.3 1.2-0.6 1.5-0.5 0.4 0.3 0.8 1 0.8 1.6 0 2.8 1.5 4.4 4.4 4.4 0.5 0 1.2 0.3 1.5 0.6 0.2 0.3 0 1.1-0.2 1.4-2.6 2.8-2.5 4.3 0.2 6.9q0.1 0.2 0.3 0.4zm-11.6 3c3.8 0 6.9-3.2 6.9-6.9 0-3.8-3.1-6.9-6.9-7-3.8 0-7 3.2-7 7.1 0.1 3.7 3.3 6.8 7 6.8z"/>
			<path id="&lt;Path&gt;" class="s0" d="m4.7 23.2c-2.2 0-3.8-1.7-3.8-3.8-0.1-2.1 1.6-3.9 3.7-3.9 2.1-0.1 4 1.8 4 3.9-0.1 2.1-1.8 3.8-3.9 3.8z"/>
			<path id="&lt;Path&gt;" class="s0" d="m0.9 49c0-2.2 1.6-3.8 3.8-3.8 2.1 0 3.8 1.7 3.9 3.8 0 2.1-1.8 3.9-4 3.9-2.1-0.1-3.8-1.8-3.7-3.9z"/>
			<path id="&lt;Path&gt;" class="s0" d="m59.9 19.4c0 2.1-1.7 3.8-3.8 3.8-2.2 0-4-1.8-3.9-4 0.1-2 1.9-3.8 3.9-3.7 2.1 0 3.8 1.8 3.8 3.9z"/>
			<path id="&lt;Path&gt;" class="s0" d="m59.9 49c0 2.1-1.7 3.9-3.8 3.9-2.1 0-4-1.8-3.9-4 0-2.1 1.8-3.7 3.9-3.7 2.1 0 3.8 1.6 3.8 3.8z"/>
			<path id="&lt;Path&gt;" class="s0" d="m30.2 67.7c-2.1-0.1-3.7-1.8-3.7-4 0.1-2.1 1.8-3.8 3.9-3.7 2.2 0 4 1.9 3.8 4-0.1 2.1-1.8 3.7-4 3.7z"/>
			<path id="&lt;Path&gt;" class="s0" d="m30.4 8.4c-2.1 0-3.8-1.7-3.9-3.8 0-2.2 1.7-3.9 3.8-3.9 2.2-0.1 4 1.7 3.9 3.9 0 2.1-1.7 3.8-3.8 3.8z"/>
			<path id="&lt;Path&gt;" class="s0" d="m34.6 34.1c0.1 2.3-1.8 4.3-4.2 4.3-2.2 0.1-4.2-1.8-4.3-4.2 0-2.2 1.9-4.3 4.2-4.3 2.3 0 4.3 1.9 4.3 4.2z"/>
		</g>
	</g>
</svg>