<svg version="1.2" xmlns="http://www.w3.org/2000/svg" viewBox="0 0 51 51" width="51" height="51">
	<title>EIMLd3 1 </title>
	<style>
		.s0 { fill: #ffffff } 
	</style>
	<g id="EIMLd3 1 ">
		<g id="&lt;Group&gt;">
			<path id="&lt;Compound Path&gt;" fill-rule="evenodd" class="s0" d="m37.9 50.2q-18.8 0-37.5 0 0-25 0-50 0.3 0 0.5 0 13.9 0 27.8 0c0.3 0 0.6 0.1 0.7 0.3q4.1 4 8.2 8.1c0.2 0.2 0.3 0.4 0.3 0.8q0 6.1 0 12.2 0 0.2 0 0.5 0.3 0.1 0.6 0.1 8.4 1.6 11.2 9.6c0.3 1 0.4 2.2 0.7 3.2q0 1.1 0 2.2-0.1 0.2-0.1 0.4c-0.7 6-5 10.8-10.8 12.2q-0.8 0.2-1.6 0.4zm-34.4-3.2q12 0 23.8 0c-0.8-0.9-1.6-1.8-2.4-2.7-0.2-0.3-0.4-0.4-0.8-0.4q-8.4 0-16.9 0-0.3 0-0.5 0-0.1-0.1-0.1-0.1c0-3.2 0-6.4 0-9.5 0.1-1.3 0.8-2.3 2-2.7q0.7-0.2 1.4-0.2 6.3 0 12.6 0c0.4 0 0.5-0.1 0.6-0.4q2.4-5.9 8.4-8.1c1-0.4 2.1-0.6 3.1-0.8q0-4.7 0-9.5c-3.1 0-6.2 0-9.3 0q0-4.6 0-9.3-11 0-21.9 0 0 21.9 0 43.7zm21.9-10.9c0 6 4.9 10.9 10.9 10.9 6 0.1 10.9-4.8 10.9-10.8 0.1-6.1-4.8-11-10.9-11-6 0-10.9 4.9-10.9 10.9zm8.5-26.6q-2.7-2.7-5.4-5.4 0 2.7 0 5.4 2.8 0 5.4 0z"/>
			<path id="&lt;Path&gt;" class="s0" d="m19.1 15.8c3.5 0 6.3 2.8 6.3 6.3 0 3.4-2.9 6.2-6.3 6.2-3.5 0-6.2-2.8-6.2-6.3 0-3.4 2.8-6.2 6.2-6.2z"/>
			<path id="&lt;Compound Path&gt;" fill-rule="evenodd" class="s0" d="m41.2 34.5c0.5 0 0.9 0 1.3 0 0 2.6 0 5.2 0 7.8q-6.2 0-12.4 0c0-2.5 0-5.1 0-7.7 0.4 0 0.8 0 1.2 0 0.1-1 0.1-1.9 0.3-2.7 1-4.2 5.8-4.3 7.9-2.6 1.1 1 1.5 2.2 1.7 3.7 0 0.5 0 1 0 1.5zm-3 0c-0.1-0.7-0.2-1.5-0.3-2.2-0.2-0.6-0.8-0.9-1.4-0.9-0.7 0-1.4 0.1-1.7 0.8-0.3 0.7-0.4 1.5-0.3 2.3 1.2 0 2.4 0 3.7 0z"/>
		</g>
	</g>
</svg>