<svg version="1.2" xmlns="http://www.w3.org/2000/svg" viewBox="0 0 62 49" width="62" height="49">
	<title>9ZFjO3 1 </title>
	<style>
		.s0 { fill: #ffffff } 
	</style>
	<g id="9ZFjO3 1 ">
		<g id="&lt;Group&gt;">
			<path id="&lt;Path&gt;" class="s0" d="m62 23.3c-0.1 1-0.2 2.1-0.4 3.2-1 6.7-3.7 12.7-8.1 18q-0.8-0.9-1.6-1.7c-0.6-0.6-1.1-1.3-1.7-1.9-0.3-0.3-0.3-0.5 0-0.8q2.7-3.5 4.4-7.6 2.5-6.6 1.9-13.7-0.6-6.5-3.8-12.1c-0.5-0.8-1-1.6-1.5-2.5 1.2-1.3 2.4-2.6 3.7-4.1 1.2 1.9 2.3 3.7 3.3 5.6 2.2 4.2 3.4 8.6 3.7 13.4 0 0.1 0.1 0.3 0.1 0.4q0 1.9 0 3.8z"/>
			<path id="&lt;Path&gt;" class="s0" d="m7.4 0.3q1.7 1.7 3.3 3.5c0.1 0.1 0.2 0.3 0.2 0.3-1 2.1-2.2 4.1-3.1 6.1-1.9 4.5-2.5 9.1-2.1 13.9q0.7 7.7 5 14.1c0.4 0.7 1 1.3 1.4 2 0.1 0.1 0.1 0.4 0 0.5q-1.6 1.9-3.3 3.7c-10.4-11.7-11.8-30.6-1.4-44.1z"/>
			<path id="&lt;Path&gt;" class="s0" d="m36.2 22.5c0 1.9-0.8 3.4-2.3 4.5-0.3 0.2-0.5 0.5-0.5 0.9q0.1 8.6 0.1 17.3c0 1.6-0.8 2.7-2.2 3-1.4 0.2-2.9-0.8-3.1-2.2q-0.1-0.5 0-1.1-0.1-8.5-0.1-17c0-0.5-0.1-0.7-0.5-1-2-1.4-2.7-4-1.8-6.3 0.7-2.1 3.1-3.6 5.3-3.5 2.5 0.2 4.6 2 5 4.4 0.1 0.4 0.1 0.7 0.1 1z"/>
			<path id="&lt;Path&gt;" class="s0" d="m12.7 6c1.1 1.2 2.3 2.5 3.4 3.7 0.3 0.3 0.1 0.5 0 0.8q-2 3.3-2.6 7.2-1.5 9.1 3.7 16.6c0.1 0.2 0.2 0.4 0.4 0.6q-1.9 2-3.7 3.9c-7.6-9.2-8.2-23-1.2-32.8z"/>
			<path id="&lt;Path&gt;" class="s0" d="m48.3 38.8q-1.9-2-3.6-3.8c0.8-1.4 1.6-2.7 2.3-4q4.5-10.2-0.6-20.1c-0.6-1.1-0.7-0.7 0.2-1.7q1.4-1.6 2.9-3.2c6.6 9 6.8 23-1.2 32.8z"/>
			<path id="&lt;Path&gt;" class="s0" d="m44.1 11.9c4.2 6.2 3.8 15.1-1.2 21.1-1.2-1.3-2.4-2.6-3.5-3.8 0.6-1.5 1.3-2.7 1.7-4.1 0.9-2.9 0.7-5.7-0.5-8.5-0.2-0.4-0.2-0.7 0.2-1.1 1.1-1.2 2.1-2.4 3.3-3.6z"/>
			<path id="&lt;Path&gt;" class="s0" d="m18.1 11.9c1.2 1.3 2.4 2.6 3.6 3.9 0.1 0.1 0.1 0.5 0 0.7q-1.2 2.6-1.1 5.4 0.1 3.6 2 6.6 0.2 0.2 0.3 0.5-1.7 2-3.5 3.9c-4.4-4.7-6-13.9-1.3-21z"/>
		</g>
	</g>
</svg>