<svg version="1.2" xmlns="http://www.w3.org/2000/svg" viewBox="0 0 57 52" width="57" height="52">
	<title>8OvwK1 1 </title>
	<style>
		.s0 { fill: #ffffff } 
	</style>
	<g id="8OvwK1 1 ">
		<g id="&lt;Group&gt;">
			<path id="&lt;Compound Path&gt;" fill-rule="evenodd" class="s0" d="m40.7 46.4c1 1.1 1.8 2.2 2.7 3.2 0.1 0.1 0.4 0.1 0.5 0.1q1 0 2 0c0.8 0 1.4 0.5 1.4 1.1 0 0.7-0.6 1.2-1.4 1.2q-12.2 0-24.5 0-5.4 0-10.9-0.1c-0.3 0-0.6 0-0.9-0.1-0.5-0.2-0.7-0.6-0.6-1.2 0.1-0.5 0.5-0.8 1.1-0.9 0.7 0 1.5 0 2.2 0 0.2 0 0.4 0 0.5-0.1 0.9-1 1.7-2.1 2.7-3.2-0.4 0-0.6 0-0.9 0q-4.9 0-9.8 0c-2.4 0-4.1-1.4-4.6-3.5-0.1-0.4-0.1-0.9-0.1-1.3q0-18.2 0-36.4c0-3 1.8-4.8 4.9-4.8q23.1 0 46.3 0c3 0 4.8 1.8 4.8 4.9 0 12 0 24.1 0.1 36.2 0 2.7-1.8 4.4-3.5 4.7q-0.7 0.2-1.5 0.2-4.8 0-9.5 0c-0.3 0-0.5 0-1 0zm13.2-8.4q0-0.4 0-0.7 0-16 0-32.1c0-1.7-0.8-2.6-2.6-2.6q-23.2 0-46.4 0c-1.7 0-2.6 0.9-2.6 2.6q0 16 0 32.1 0 0.3 0 0.7c17.2 0 34.4 0 51.6 0z"/>
			<path id="&lt;Compound Path&gt;" fill-rule="evenodd" class="s0" d="m28.8 30.3c-5.1-0.1-9-1.5-12.7-3.7q-3.7-2.2-6.7-5.3c-0.7-0.7-0.7-1.2 0-2 3.3-3.3 7.1-5.9 11.6-7.5 5.6-2.1 11.1-1.7 16.5 0.9 3.5 1.6 6.5 3.9 9.3 6.6 0.8 0.8 0.8 1.3 0 2.1-4.2 4-8.8 7.1-14.5 8.4-1.4 0.3-2.8 0.4-3.5 0.5zm-0.7-4.2c3.2 0 5.7-2.6 5.8-5.7 0-3.2-2.6-5.8-5.7-5.8-3.2 0-5.8 2.5-5.8 5.7-0.1 3.2 2.5 5.7 5.7 5.8z"/>
			<path id="&lt;Path&gt;" class="s0" d="m28.1 23.8c-2 0-3.5-1.6-3.5-3.5 0-1.9 1.6-3.5 3.6-3.5 1.9 0 3.5 1.6 3.4 3.6 0 1.9-1.6 3.4-3.5 3.4z"/>
		</g>
	</g>
</svg>