<svg version="1.2" xmlns="http://www.w3.org/2000/svg" viewBox="0 0 50 70" width="50" height="70">
	<title>euOaAq 1 </title>
	<style>
		.s0 { fill: #ffffff } 
	</style>
	<g id="euOaAq 1 ">
		<g id="&lt;Group&gt;">
			<path id="&lt;Compound Path&gt;" fill-rule="evenodd" class="s0" d="m17.4 54.2c-5.4-5.4-10.5-10.5-15.7-15.6-1.5-1.5-1.4-1.5 0-3q12.2-12.1 24.3-24.2 0.6-0.7 1.3-1.3c5.7 5.7 11.2 11.3 16.9 17 1.1-1.1 2-2 2.9-2.8 3.2 2.1 3.5 4.7 1 7.2q-13.2 13.2-26.5 26.5c-2.1 2.1-4.6 1.9-6.4-0.4-0.3-0.3-0.3-1.1 0-1.4 0.6-0.7 1.4-1.3 2.2-2zm0.6-1.4c8.4-8.4 16.8-16.8 25.1-25-5.2-5.2-10.5-10.5-15.6-15.6-8.3 8.3-16.8 16.7-25.1 25 5.2 5.2 10.5 10.5 15.6 15.6zm10.9-8.2c0.8 0.7 1.5 0.5 2.2-0.3 1.1-1.1 2.2-2.1 3.3-3.2 1.1-1.1 1.1-1.1 0.4-2.4q-2.9 2.9-5.9 5.9z"/>
			<path id="&lt;Path&gt;" class="s0" d="m5.7 60.4c3.8 0.8 4.4 3.7 4.8 7 3-0.8 5.9-2.3 8.5 0.8q0.1-0.2 0.2-0.4c-0.5-1.7-0.9-3.4-1.3-5.1-0.1-0.4 0.1-0.9 0.2-1.3 0.3 0.3 0.8 0.6 0.9 0.9q0.9 3.3 1.7 6.6c0.1 0.3 0.1 0.8-0.1 0.9-0.2 0.2-0.8 0.1-1 0-2.7-2.3-5.7-2.7-8.9-1.2-0.3 0.1-1.2-0.5-1.2-0.8-0.4-3.5-2-5.9-5.3-7.1-0.3-0.1-0.7-0.6-0.6-0.8 0.1-0.3 0.5-0.6 0.8-0.7q3.3-0.9 6.6-1.7c0.3 0 0.7 0.2 1.1 0.3-0.3 0.3-0.5 0.8-0.9 0.9-1.7 0.5-3.5 0.9-5.2 1.4q-0.1 0.1-0.3 0.3z"/>
			<path id="&lt;Path&gt;" class="s0" d="m17.3 11.2c0 1.4 0 2.8-0.1 4.2 0 0.3-0.3 0.6-0.5 0.9-0.2-0.3-0.6-0.6-0.6-0.8q-0.1-4.3 0-8.5c0-0.3 0.4-0.6 0.6-0.8 0.2 0.3 0.5 0.6 0.5 0.9 0.1 1.4 0.1 2.8 0.1 4.1z"/>
			<path id="&lt;Path&gt;" class="s0" d="m39.1 10.9c0 1.2 0.1 2.5 0 3.7 0 0.4-0.3 0.7-0.5 1.1-0.2-0.3-0.6-0.7-0.7-1q0-3.8 0-7.5c0.1-0.4 0.4-0.7 0.7-1.1 0.1 0.4 0.5 0.8 0.5 1.1 0.1 1.3 0 2.5 0 3.7z"/>
			<path id="&lt;Path&gt;" class="s0" d="m22.7 8.1c0 1.2 0.1 2.4 0 3.5 0 0.4-0.4 0.7-0.6 1-0.2-0.3-0.6-0.6-0.6-0.9q-0.1-3.6 0-7.1c0-0.3 0.5-0.6 0.7-1 0.2 0.4 0.5 0.7 0.5 1 0.1 1.2 0 2.3 0 3.5z"/>
			<path id="&lt;Path&gt;" class="s0" d="m32.5 8.2c0-1.3-0.1-2.5 0-3.7 0-0.3 0.3-0.6 0.5-0.9 0.2 0.3 0.6 0.6 0.7 0.8q0 3.7 0 7.4c0 0.3-0.4 0.5-0.6 0.8-0.2-0.3-0.6-0.6-0.6-0.9-0.1-1.2 0-2.4 0-3.5z"/>
			<path id="&lt;Path&gt;" class="s0" d="m27 4.4c0-1-0.1-1.9 0-2.8 0-0.3 0.4-0.6 0.5-0.9 0.3 0.3 0.7 0.5 0.7 0.8q0.1 2.9 0 5.8c0 0.3-0.4 0.6-0.6 0.9-0.2-0.3-0.6-0.6-0.6-0.9-0.1-1 0-2 0-2.9z"/>
			<path id="&lt;Path&gt;" class="s0" d="m3.9 37c0.4-0.4 0.8-0.8 1.1-1.2 7.1-7 14.1-14 21.1-21.1 1-1 1.5-1.1 2.6-0.1 3.9 4.1 7.9 8.1 11.9 12 0.9 0.9 1.1 1.4 0.1 2.4-7.2 7.1-14.3 14.2-21.5 21.4-0.6 0.6-1.1 1.2-2 0.2-4.2-4.3-8.6-8.6-12.9-12.9-0.1-0.2-0.2-0.4-0.4-0.7z"/>
		</g>
	</g>
</svg>