<?xml version="1.0" encoding="utf-8"?>
<!-- Generator: Adobe Illustrator 25.4.1, SVG Export Plug-In . SVG Version: 6.00 Build 0)  -->
<svg version="1.1" id="レイヤー_1" xmlns="http://www.w3.org/2000/svg" xmlns:xlink="http://www.w3.org/1999/xlink" x="0px"
	 y="0px" viewBox="0 0 841.89 394.24" style="enable-background:new 0 0 841.89 394.24;" xml:space="preserve">
<style type="text/css">
	.st0{fill:none;}
	.st1{fill:#00B7F1;}
</style>
<g>
	<g>
		<rect x="0" y="0" class="st0" width="841.89" height="394.24"/>
	</g>
	<g>
		<g>
			<rect x="627.06" y="86.5" width="23.1" height="16.32"/>
			<path d="M712.19,164.95c-4.67,4.9-9.96,7.82-16.59,9.16c-4.49,0.91-8.4,1.09-12.96,0.63c-6.03-0.62-11.01-2.57-15.87-6.19
				c-3.97-2.96-6.82-6.17-9.29-10.46c-1.92-3.32-3.04-6.43-3.66-10.22c-0.87-5.25-0.64-9.87,0.75-15.01
				c3.15-11.67,11.94-19.96,23.78-22.42c6.76-1.41,12.77-1.26,19.45,0.46c4.77,1.23,8.55,3.3,12.15,6.65
				c2.27,2.11,3.88,4.23,5.32,6.97c1.69,3.24,2.37,6.39,2.18,10.04h-21.12c-0.46-2.83-1.82-5.08-4.1-6.82
				c-2.95-2.25-6.76-2.43-9.92-0.48c-2.16,1.34-3.58,3.16-4.34,5.59c-1.82,5.77-1.91,11.14-0.28,16.96
				c0.69,2.45,1.85,4.38,3.69,6.13c2.11,2.01,4.75,2.84,7.63,2.42c1.8-0.27,3.25-1.05,4.46-2.4c1.26-1.41,1.99-2.91,2.32-4.76
				c0.23-1.3,0.36-2.41,0.43-3.74h22.26C718.96,154.18,716.83,160.07,712.19,164.95"/>
			<rect x="627.06" y="111.21" width="23.1" height="61.77"/>
			<path d="M579.23,117.74c3.04-2.65,5.93-4.53,9.6-6.22c5.97-2.76,11.94-3.2,18.25-1.36c6.77,1.98,11.65,6.75,13.78,13.47
				c1.02,3.23,1.47,6.1,1.47,9.49v39.87h-24.53v-35.85c0-1.2-0.15-2.21-0.5-3.36c-0.63-2.07-1.99-3.58-3.98-4.42
				c-4.35-1.85-9.29-0.21-11.68,3.87c-1,1.7-1.45,3.38-1.45,5.35v34.42h-23.76v-61.77h22.28L579.23,117.74"/>
			<path d="M306.03,117.74c3.04-2.65,5.93-4.53,9.6-6.22c5.96-2.76,11.94-3.2,18.24-1.36c6.77,1.98,11.65,6.75,13.78,13.47
				c1.03,3.23,1.47,6.1,1.47,9.49v39.87H324.6v-35.85c0-1.2-0.15-2.21-0.5-3.36c-0.63-2.07-1.99-3.58-3.98-4.42
				c-4.35-1.85-9.29-0.21-11.68,3.87c-1,1.7-1.45,3.38-1.45,5.35v34.42h-23.76v-61.77h22.28L306.03,117.74"/>
			<path d="M451.62,150.25c1.77,0.31,3.25,0.67,4.95,1.24c1.42,0.47,2.39,1.56,2.7,3.02c0.33,1.58-0.11,3.09-1.25,4.24
				c-1.16,1.17-2.48,1.85-4.11,2.1c-2.18,0.35-4.11,0.16-6.19-0.58c-1.01-0.36-1.8-0.82-2.62-1.5c-1.07-0.89-1.75-1.91-2.16-3.24
				c-0.34-1.12-0.48-2.12-0.46-3.29h-22.62v1.32c0,2.13,0.33,3.93,1.08,5.92c1.13,2.99,2.69,5.31,5.03,7.5
				c3.07,2.85,6.26,4.66,10.29,5.8c8.36,2.38,15.9,2.85,24.49,1.53c4.03-0.62,7.36-1.7,10.98-3.58c1.6-0.83,2.88-1.68,4.26-2.84
				c6.12-5.13,8.38-12.96,5.93-20.56c-0.92-2.86-2.38-5.07-4.65-7.04c-3.12-2.7-6.27-4.42-10.23-5.58c-0.87-0.25-1.6-0.46-2.48-0.7
				c-4.85-1.35-9.01-2.23-13.98-2.97c-1.34-0.2-2.46-0.41-3.77-0.72c-0.61-0.14-1.11-0.31-1.68-0.57c-1.39-0.63-2.01-2.26-1.38-3.65
				c0.03-0.08,0.07-0.14,0.11-0.21c0.75-1.33,1.85-2.21,3.31-2.63c2.57-0.74,4.96-0.69,7.49,0.18c2.43,0.83,3.96,3.06,3.85,5.63
				h21.79c-0.02-2.68-0.42-4.94-1.34-7.46c-0.92-2.55-2.32-4.5-4.45-6.18c-1.86-1.47-3.62-2.47-5.83-3.33
				c-2.16-0.83-4.05-1.36-6.32-1.75c-5.39-0.94-10.05-1.2-15.51-0.88c-3.13,0.18-5.77,0.57-8.82,1.28
				c-4.12,0.97-7.43,2.56-10.76,5.17c-2.83,2.22-4.68,4.81-5.86,8.2c-0.54,1.53-0.8,2.9-0.87,4.52c-0.12,2.7,0.27,5.02,1.27,7.53
				c1.8,4.52,4.99,7.71,9.51,9.51c2.29,0.91,4.29,1.51,6.71,2.01C442.8,148.67,446.83,149.44,451.62,150.25"/>
			<path d="M181.23,146.35h-15.85v-20.27h10.29c1.96,0,3.62-0.05,5.57-0.15c2.71-0.15,4.96-1.36,6.58-3.54
				c0.86-1.16,1.34-2.33,1.54-3.76c0.17-1.2,0.19-2.23,0.08-3.44c-0.44-4.51-4.18-7.89-8.7-7.89h-15.36v65.69h-26.25V86.5h42.9
				c1.7,0,3.15,0.04,4.85,0.13c11.38,0.61,20.75,6.93,25.57,17.25c2.51,5.37,3.37,10.54,2.72,16.44
				c-1.36,12.42-10.04,22.08-22.25,24.75C188.87,145.97,185.37,146.35,181.23,146.35"/>
			<path d="M525.72,110.02c-2.44-0.38-4.53-0.54-7-0.54c-2.47,0-4.56,0.16-7,0.54c-7.09,1.11-12.84,3.96-18.02,8.93
				c-5.54,5.32-8.57,11.63-9.26,19.28c-0.42,4.7-0.06,8.74,1.2,13.29c1.93,6.97,5.58,12.36,11.32,16.76
				c3.78,2.9,7.55,4.64,12.2,5.66c3.31,0.72,6.17,1.03,9.55,1.03c3.39,0,6.25-0.31,9.55-1.03c4.66-1.02,8.42-2.76,12.2-5.66
				l-13.28-14.47c-2.11,4.69-7.61,6.78-12.3,4.67c-2.16-0.97-3.69-2.5-4.67-4.67c-0.9-2-1.43-3.79-1.75-5.96
				c-0.66-4.34-0.57-8.11,0.27-12.42c0.44-2.24,1.18-4.06,2.43-5.97c2.73-4.16,8.31-5.33,12.48-2.6c1.09,0.71,1.88,1.51,2.6,2.6
				c1.25,1.91,1.99,3.73,2.43,5.97c0.84,4.31,0.93,8.08,0.27,12.42c-0.33,2.17-0.86,3.96-1.75,5.96l13.28,14.47
				c5.74-4.4,9.39-9.79,11.32-16.76c1.27-4.55,1.63-8.59,1.2-13.29c-0.7-7.65-3.72-13.95-9.27-19.28
				C538.56,113.98,532.81,111.13,525.72,110.02"/>
			<path d="M417.35,168.12c-0.35-5.1-0.54-9.41-0.64-14.51c-0.14-6.7-0.21-12.37-0.26-19.07c-0.03-3.62-0.43-6.67-1.33-10.18
				c-1.19-4.59-3.88-8.08-8.02-10.4c-2.5-1.4-4.79-2.27-7.6-2.86c-8.91-1.91-16.77-2.07-25.75-0.51c-2.52,0.44-4.61,1.04-6.98,2.02
				c-5.47,2.26-9.24,6.38-10.99,12.04c-0.67,2.17-0.86,4.12-0.59,6.37c0.05,0.42,0.15,0.76,0.34,1.14l20.79,0.5
				c-0.05-1.32,0.12-2.45,0.57-3.69c0.68-1.9,2.02-3.24,3.92-3.93c2.79-1.02,5.47-1.06,8.3-0.14c1.86,0.61,3.18,1.95,3.76,3.82
				c0.36,1.17,0.18,2.31-0.52,3.31c-0.62,0.88-1.37,1.47-2.38,1.85c-0.62,0.23-1.15,0.41-1.78,0.58c-2.89,0.78-5.36,1.31-8.31,1.8
				c-2.34,0.39-4.3,0.75-6.62,1.21c-3.15,0.63-5.77,1.32-8.82,2.31c-2.79,0.9-4.99,2.18-7.14,4.16c-2.8,2.57-4.41,5.62-4.94,9.38
				c-0.36,2.52-0.27,4.71,0.29,7.19c1.45,6.44,5.93,11.21,12.27,13.05c7.04,2.04,13.63,1.71,20.43-1.03
				c3.3-1.33,5.82-3.17,8.09-5.91l-1.47-10.62c-1.05,1.62-2.34,2.73-4.11,3.5c-1.65,0.72-3.14,1.12-4.93,1.29
				c-1.5,0.15-2.79,0.04-4.24-0.36c-1.17-0.32-2.1-0.88-2.93-1.77c-0.71-0.76-1.13-1.57-1.34-2.59c-0.33-1.56,0.19-3.06,1.4-4.09
				c0.81-0.69,1.61-1.15,2.61-1.52c2.41-0.89,4.47-1.55,6.94-2.26c2.99-0.84,5.46-1.76,8.28-3.05c0.28,2.26,0.26,4.2-0.05,6.45
				c-0.23,1.65-0.73,3-1.63,4.4l1.47,10.62c0.46,1.5,0.87,2.77,1.39,4.25c0.29,0.82,0.67,1.47,1.25,2.11h22.9
				C417.97,171.45,417.47,169.94,417.35,168.12"/>
			<path d="M278.68,168.12c-0.35-5.1-0.54-9.41-0.64-14.51c-0.14-6.7-0.21-12.37-0.26-19.07c-0.03-3.62-0.42-6.67-1.33-10.18
				c-1.19-4.59-3.88-8.08-8.02-10.4c-2.5-1.4-4.79-2.27-7.6-2.86c-8.91-1.91-16.77-2.07-25.75-0.51c-2.52,0.44-4.61,1.04-6.98,2.02
				c-5.47,2.26-9.23,6.38-10.99,12.04c-0.67,2.17-0.85,4.12-0.59,6.37c0.05,0.42,0.15,0.76,0.34,1.14l20.78,0.5
				c-0.05-1.32,0.12-2.45,0.57-3.69c0.68-1.9,2.02-3.24,3.92-3.93c2.79-1.02,5.47-1.06,8.3-0.14c1.86,0.61,3.18,1.95,3.76,3.82
				c0.36,1.17,0.18,2.31-0.52,3.31c-0.62,0.88-1.38,1.47-2.38,1.85c-0.61,0.23-1.14,0.41-1.78,0.58c-2.88,0.78-5.36,1.31-8.31,1.8
				c-2.33,0.39-4.3,0.75-6.62,1.21c-3.15,0.63-5.77,1.32-8.82,2.31c-2.79,0.9-4.98,2.18-7.15,4.16c-2.8,2.57-4.41,5.62-4.94,9.38
				c-0.36,2.52-0.27,4.71,0.29,7.19c1.45,6.44,5.93,11.21,12.27,13.05c7.04,2.04,13.63,1.71,20.43-1.03
				c3.3-1.33,5.82-3.17,8.09-5.91l-1.47-10.62c-1.04,1.62-2.35,2.73-4.11,3.5c-1.65,0.72-3.14,1.12-4.93,1.29
				c-1.5,0.15-2.79,0.04-4.24-0.36c-1.18-0.32-2.1-0.88-2.93-1.77c-0.71-0.76-1.13-1.57-1.34-2.59c-0.33-1.56,0.19-3.06,1.4-4.09
				c0.81-0.69,1.61-1.15,2.61-1.52c2.41-0.89,4.47-1.55,6.95-2.26c2.99-0.84,5.46-1.76,8.28-3.05c0.27,2.26,0.26,4.2-0.05,6.45
				c-0.23,1.65-0.73,3-1.63,4.4l1.47,10.62c0.46,1.5,0.87,2.77,1.39,4.25c0.29,0.82,0.67,1.47,1.25,2.11h22.9
				C279.3,171.45,278.8,169.94,278.68,168.12"/>
		</g>
		<g>
			<path class="st1" d="M520.03,307.78h67.56v-16.32h-48.8v-23.24h38.46V252.5h-38.46v-20.18h47.21v-16.2h-65.96V307.78z"/>
			<path class="st1" d="M708.83,307.78h19.07v-75.36h27.47v-16.31h-74v16.31h27.46V307.78z"/>
			<path class="st1" d="M382.08,216.11v65.06l-0.06,0l-0.45,0c0,0-7.95-10.56-23.12-31.39c-8.35-11.46-24.9-33.67-24.9-33.67h-20.23
				v91.67h19.07v-64.94l0.53,0c0,0,7.62,11.08,23.39,32.09c9.19,12.25,25.49,32.86,25.49,32.86h19.34v-91.67H382.08z"/>
			<path class="st1" d="M485.43,216.11v65.06l-0.06,0l-0.45,0c0,0-7.95-10.56-23.12-31.39c-8.35-11.46-24.9-33.67-24.9-33.67h-20.23
				v91.67h19.07v-64.94l0.53,0c0,0,7.62,11.08,23.39,32.09c9.19,12.25,25.49,32.86,25.49,32.86h19.34v-91.67H485.43z"/>
			<path class="st1" d="M640.88,292.86c-16.08,0-30.75-13.2-30.75-31.04c0.01-17.01,14.27-30.72,30.77-30.7
				c8.48,0.01,15.71,2.55,21.97,8.38l11.57-11.88c-8.65-8.85-21.39-14.88-34.54-14.88c-26.45-0.01-48.45,21.82-48.46,49.08
				c-0.01,27.26,21.97,49.37,48.42,49.37c17.13,0,27.99-7.69,36.7-16.9l-11.52-11.95C659.88,287.87,652.63,292.86,640.88,292.86z"/>
			<path class="st1" d="M253.08,212.72c-11.89,0-24.14,2.93-37.86,17.32c-7.05,7.39-23.15,31.83-37.31,45.72
				c-8.54,8.38-19.92,15.89-34.41,15.89c-21.42,0-36.72-17.74-36.72-36.21c0-20.95,17-36.39,36.02-36.39
				c9.94,0,18.95,3.25,25.55,9.74l13-13.09c0,0,0,0,0,0c-0.01-0.01-7.12-7.6-19.22-12.31c-5.75-2.31-11.97-3.67-18.62-3.67
				c-31.51,0-57.05,24.95-57.05,55.72s25.54,55.72,57.05,55.72c15.81,0,31.92-6.72,44.74-19.22c6.73-6.56,12.57-13.66,17.07-20.66
				c1.33,8.51,4.98,17.93,13.72,26.67c8.5,8.5,21.08,13.21,34.04,13.21c27.19,0,49.72-22.04,49.72-49.23
				C302.79,234.76,280.26,212.72,253.08,212.72z M253.44,292.19c-16.4,0-29.7-13.57-29.7-30.31c0-16.74,13.3-30.31,29.7-30.31
				s29.7,13.57,29.7,30.31C283.14,278.62,269.85,292.19,253.44,292.19z"/>
		</g>
	</g>
</g>
</svg>
