<svg version="1.2" xmlns="http://www.w3.org/2000/svg" viewBox="0 0 980 176" width="980" height="176">
	<title>TOUGHBOOK 2 LOGO-ai</title>
	<style>
		.s0 { fill: #1a1a1a } 
	</style>
	<g id="Layer 1">
		<g id="&lt;Group&gt;">
			<path id="&lt;Compound Path&gt;" fill-rule="evenodd" class="s0" d="m971.2 176h-962.4c-4.8 0-8.7-3.9-8.7-8.7v-158.7c0-4.8 3.9-8.6 8.7-8.6h962.4c4.8 0 8.7 3.8 8.7 8.6v158.7c0 4.8-3.9 8.7-8.7 8.7zm-953.7-17.4h945v-141.3h-945z"/>
			<path id="&lt;Path&gt;" class="s0" d="m121.7 46.9v28.4c0 0.8-0.6 1.4-1.4 1.4h-15.1c-0.7 0-1.3-0.6-1.3-1.4v-15.1h-14.4v55.7h11.1c0.8 0 1.4 0.6 1.4 1.3v12c0 0.7-0.6 1.3-1.4 1.3h-43.1c-0.7 0-1.3-0.6-1.3-1.3v-12c0-0.7 0.6-1.3 1.3-1.3h11.2v-55.7h-14.4v15.1c0 0.8-0.7 1.4-1.4 1.4h-15.1c-0.7 0-1.3-0.6-1.3-1.4v-28.4c0-0.7 0.6-1.3 1.3-1.3h82.5c0.8 0 1.4 0.6 1.4 1.3z"/>
			<path id="&lt;Path&gt;" class="s0" d="m319.4 46.9v11.9c0 0.8-0.6 1.4-1.3 1.4h-7.9v40.4c0 18.1-15.7 31.7-36.6 31.7-35.5 0-38.3-24.2-38.3-31.7v-40.4h-7.9c-0.7 0-1.3-0.6-1.3-1.4v-11.9c0-0.7 0.6-1.3 1.3-1.3h37.1c0.7 0 1.3 0.6 1.3 1.3v11.9c0 0.8-0.6 1.4-1.3 1.4h-8.4v35.4c0 4.8 0 12.9 4.8 17.7 2.9 2.9 7.1 4.3 12.7 4.3 5.8 0 10.3-1.4 13.2-4.4 4.6-4.7 4.4-12.3 4.3-16.8v-1.6-34.6h-8.3c-0.8 0-1.4-0.6-1.4-1.4v-11.9c0-0.7 0.6-1.3 1.4-1.3h35.3c0.7 0 1.3 0.6 1.3 1.3z"/>
			<path id="&lt;Path&gt;" class="s0" d="m420.3 89.8v9.2c0 0.7-0.6 1.3-1.4 1.3h-7.2v28.9c0 0.7-0.6 1.3-1.3 1.3h-16.4c-0.8 0-1.4-0.6-1.4-1.3v-5.5c-4.8 5.5-12.6 8.6-22 8.6-28.4 0-46.1-16.7-46.1-43.6 0-28.1 15.8-44.9 42.3-44.9 11 0 19.4 2.7 25 8v-4.9c0-0.7 0.7-1.3 1.4-1.3h16.4c0.7 0 1.3 0.6 1.3 1.3v25.5c0 0.8-0.6 1.4-1.3 1.4h-16.4c-0.7 0-1.3-0.6-1.4-1.3-0.5-11.6-12.2-14.1-21.9-14.1-20.5 0-23.6 19.8-23.6 31.7 0 17.2 9.3 27.6 25 27.6 11.5 0 19.6-7 20.5-17.4h-11.6c-0.8 0-1.4-0.6-1.4-1.3v-9.2c0-0.8 0.6-1.4 1.4-1.4h38.7c0.8 0 1.4 0.6 1.4 1.4z"/>
			<path id="&lt;Path&gt;" class="s0" d="m524.9 46.9v11.9c0 0.8-0.6 1.4-1.3 1.4h-9.4v55.7h9.4c0.7 0 1.3 0.6 1.3 1.3v12c0 0.7-0.6 1.3-1.3 1.3h-38.5c-0.8 0-1.4-0.6-1.4-1.3v-12c0-0.7 0.6-1.3 1.4-1.3h8.2v-21.4h-35.7v21.4h8.3c0.7 0 1.3 0.6 1.3 1.3v12c0 0.7-0.6 1.3-1.3 1.3h-38.6c-0.7 0-1.3-0.6-1.3-1.3v-12c0-0.7 0.6-1.3 1.3-1.3h9.5v-55.7h-9.5c-0.7 0-1.3-0.6-1.3-1.4v-11.9c0-0.7 0.6-1.3 1.3-1.3h38.6c0.7 0 1.3 0.6 1.3 1.3v11.9c0 0.8-0.6 1.4-1.3 1.4h-8.3v19.7h35.7v-19.7h-8.2c-0.8 0-1.4-0.6-1.4-1.4v-11.9c0-0.7 0.6-1.3 1.4-1.3h38.5c0.7 0 1.3 0.6 1.3 1.3z"/>
			<path id="&lt;Compound Path&gt;" fill-rule="evenodd" class="s0" d="m618.9 105.2c0 10.7-4.4 18.1-13.1 22-7.1 3.1-15.7 3.3-23.2 3.3h-42.9c-0.8 0-1.4-0.6-1.4-1.3v-12c0-0.7 0.6-1.3 1.4-1.3h9.4v-55.7h-9.4c-0.8 0-1.4-0.6-1.4-1.4v-11.9c0-0.8 0.6-1.4 1.4-1.4h41.2c15 0 35.4 0 35.4 21.5 0 9.5-4.3 15.9-12.5 18.7 8.9 2.7 15.1 10.3 15.1 19.5zm-49 10.7h10.8c11.3 0 17.4-1.8 17.4-11.5 0-9.8-6.5-10.5-17.3-10.5h-10.9zm25.6-46.5c0-7.7-5.9-9.2-16-9.2h-9.6v19.7h9.1c11.4 0 16.5-3.2 16.5-10.5z"/>
			<path id="&lt;Compound Path&gt;" fill-rule="evenodd" class="s0" d="m720.1 88c0 26.9-18.3 44.3-46.7 44.3-28.3 0-46.6-17.4-46.6-44.3 0-26.8 18.3-44.2 46.6-44.2 28.4 0 46.7 17.4 46.7 44.2zm-21.9 0c0-11-3.2-29.6-24.8-29.6-21.5 0-24.8 18.6-24.8 29.6 0 11.1 3.3 29.6 24.8 29.6 21.6 0 24.8-18.5 24.8-29.6z"/>
			<path id="&lt;Compound Path&gt;" fill-rule="evenodd" class="s0" d="m223.8 88c0 26.9-18.3 44.3-46.7 44.3-28.3 0-46.6-17.4-46.6-44.3 0-26.8 18.3-44.2 46.6-44.2 28.4 0 46.7 17.4 46.7 44.2zm-21.9 0c0-11-3.2-29.6-24.8-29.6-21.5 0-24.7 18.6-24.7 29.6 0 11.1 3.2 29.6 24.7 29.6 21.6 0 24.8-18.5 24.8-29.6z"/>
			<path id="&lt;Compound Path&gt;" fill-rule="evenodd" class="s0" d="m823.1 88c0 26.9-18.3 44.3-46.6 44.3-28.4 0-46.7-17.4-46.7-44.3 0-26.8 18.3-44.2 46.7-44.2 28.3 0 46.6 17.4 46.6 44.2zm-71.4 0c0 11.1 3.2 29.6 24.8 29.6 21.5 0 24.7-18.5 24.7-29.6 0-11-3.2-29.6-24.7-29.6-21.6 0-24.8 18.6-24.8 29.6z"/>
			<path id="&lt;Path&gt;" class="s0" d="m928.1 118.6v10.6c0 0.7-0.6 1.4-1.4 1.4h-41c-0.8 0-1.4-0.7-1.4-1.4v-10.6c0-0.8 0.6-1.4 1.4-1.4h8.7l-35.7-27.3v27.3h8c0.8 0 1.4 0.6 1.4 1.4v10.6c0 0.7-0.6 1.4-1.4 1.4h-38.2c-0.8 0-1.4-0.7-1.4-1.4v-10.6c0-0.8 0.6-1.4 1.4-1.4h9.4v-58.4h-9.4c-0.8 0-1.4-0.6-1.4-1.3v-10.6c0-0.7 0.6-1.3 1.4-1.3h38.2c0.8 0 1.4 0.6 1.4 1.3v10.6c0 0.7-0.6 1.3-1.4 1.3h-8v23.5l33.5-23.5h-6.4c-0.8 0-1.4-0.6-1.4-1.3v-10.6c0-0.7 0.6-1.3 1.4-1.3h37.9c0.7 0 1.3 0.6 1.3 1.3v10.6c0 0.7-0.6 1.3-1.3 1.3h-5.4l-37.8 26.8 40.9 31.6h5.3c0.8 0 1.4 0.6 1.4 1.4z"/>
			<path id="&lt;Compound Path&gt;" fill-rule="evenodd" class="s0" d="m928.9 36.1c0-6.4 5.2-11.1 11.5-11.1 6.2 0 11.4 4.7 11.4 11.1 0 6.5-5.2 11.2-11.4 11.2-6.3 0-11.5-4.7-11.5-11.2zm11.5 9.4c5.1 0 9.1-4 9.1-9.4 0-5.3-4-9.3-9.1-9.3-5.2 0-9.3 4-9.3 9.3 0 5.4 4.1 9.4 9.3 9.4zm-2.4-2.9h-2v-12.9h5c3.1 0 4.6 1.1 4.6 3.7 0 2.3-1.5 3.3-3.4 3.5l3.7 5.7h-2.2l-3.4-5.6h-2.3zm2.3-7.2c1.7 0 3.2-0.1 3.2-2.1 0-1.6-1.5-1.9-2.8-1.9h-2.7v4z"/>
		</g>
	</g>
</svg>